<svg width="52" height="334" fill="none" xmlns="http://www.w3.org/2000/svg"><mask id="path-1-outside-1_1_400" maskUnits="userSpaceOnUse" x="-1.044" y="-1.013" width="53.786" height="336.412" fill="#000"><path fill="#fff" d="M-1.044-1.013h53.786v336.412H-1.044z"/><path d="m50.617 319.902.113 13.636-46.671-14.977-.144-17.272 46.417-15.749.113 13.636-33.642 10.461.003.363 33.81 9.902ZM32.275 322.6l-.213-25.636 9.454-.078.213 25.635-9.454.079Zm18.02-41.543-46.544.386-.168-20.181c-.03-3.545.423-6.527 1.358-8.944.934-2.432 2.268-4.268 4-5.51 1.732-1.257 3.78-1.895 6.143-1.915 1.712-.014 3.276.352 4.691 1.098 1.415.73 2.606 1.766 3.572 3.106.95 1.341 1.615 2.911 1.993 4.711l.455-.003c.059-2.001.551-3.823 1.477-5.467a10.447 10.447 0 0 1 3.809-3.941c1.613-.983 3.518-1.484 5.714-1.502 2.546-.021 4.816.627 6.812 1.943 1.996 1.302 3.572 3.168 4.729 5.598 1.156 2.43 1.749 5.334 1.777 8.712l.181 21.909Zm-10.196-12.552-.049-5.909c-.018-2.121-.425-3.709-1.221-4.763-.812-1.054-1.998-1.574-3.559-1.561-1.09.009-2.013.266-2.766.773-.754.506-1.323 1.223-1.71 2.15-.386.912-.574 2.013-.563 3.3l.05 6.091 9.818-.081Zm-17.636.146-.043-5.182c-.009-1.106-.191-2.082-.547-2.927-.355-.846-.86-1.501-1.516-1.965-.67-.479-1.483-.715-2.438-.707-1.44.012-2.533.536-3.282 1.573-.764 1.037-1.14 2.343-1.127 3.918l.045 5.364 8.908-.074Zm3.83-75.239c5.182-.043 9.562.928 13.139 2.914 3.562 1.986 6.274 4.683 8.136 8.092 1.846 3.409 2.787 7.219 2.822 11.431.035 4.243-.85 8.083-2.655 11.523-1.82 3.424-4.494 6.158-8.023 8.203-3.544 2.029-7.891 3.065-13.043 3.108-5.181.043-9.553-.921-13.115-2.891-3.577-1.986-6.289-4.675-8.135-8.069-1.862-3.409-2.81-7.235-2.846-11.477-.035-4.212.85-8.038 2.655-11.477 1.79-3.439 4.457-6.181 8-8.226 3.529-2.044 7.884-3.088 13.066-3.131Zm.109 13c-2.788.023-5.134.413-7.036 1.172-1.918.743-3.364 1.838-4.337 3.286-.988 1.432-1.473 3.194-1.456 5.285.017 2.091.532 3.851 1.544 5.283.996 1.416 2.46 2.487 4.39 3.213 1.915.712 4.267 1.056 7.054 1.033 2.788-.023 5.141-.407 7.06-1.15 1.902-.758 3.348-1.853 4.336-3.286.973-1.447 1.45-3.217 1.433-5.307-.017-2.091-.524-3.845-1.52-5.261-1.013-1.431-2.476-2.502-4.391-3.213-1.93-.727-4.29-1.079-7.077-1.055ZM2.745 160.214l-.105-12.636 29.817-.247c3.545-.03 6.62.793 9.225 2.469 2.59 1.66 4.602 3.992 6.036 6.996 1.419 3.003 2.145 6.497 2.178 10.482.033 4.015-.635 7.536-2.003 10.562-1.385 3.027-3.357 5.392-5.919 7.095-2.577 1.688-5.638 2.547-9.183 2.576l-29.818.248-.105-12.636 28.727-.239c1.44-.011 2.724-.34 3.855-.986a6.892 6.892 0 0 0 2.615-2.658c.627-1.142.934-2.432.922-3.872-.012-1.454-.34-2.739-.986-3.855a6.886 6.886 0 0 0-2.658-2.615c-1.142-.627-2.433-.934-3.872-.922l-28.726.238Zm10.037-17.453-10.181.084-.336-40.453 10.181-.084.117 13.999 36.362-.301.103 12.454-36.362.301.116 14ZM1.892 57.343l-.106-12.636 29.818-.248c3.545-.029 6.62.794 9.225 2.47 2.59 1.66 4.601 3.992 6.035 6.995 1.42 3.004 2.145 6.498 2.178 10.482.034 4.015-.634 7.536-2.003 10.563-1.384 3.027-3.357 5.392-5.919 7.095-2.576 1.688-5.638 2.547-9.183 2.576l-29.817.247-.105-12.636 28.726-.238c1.44-.012 2.725-.34 3.856-.987a6.887 6.887 0 0 0 2.614-2.658c.627-1.141.935-2.432.923-3.871-.012-1.455-.341-2.74-.987-3.856a6.886 6.886 0 0 0-2.658-2.614c-1.142-.627-2.432-.934-3.871-.923l-28.727.239ZM16.072 13.49c-1.514.133-2.69.711-3.53 1.734-.84 1.007-1.252 2.533-1.236 4.578.011 1.303.18 2.37.504 3.2.31.816.732 1.419 1.265 1.808.534.39 1.142.59 1.824.599a2.987 2.987 0 0 0 1.52-.308c.437-.246.835-.628 1.195-1.146.344-.519.657-1.18.938-1.986.281-.805.53-1.762.749-2.87l.786-3.824c.524-2.58 1.226-4.791 2.104-6.632.88-1.84 1.92-3.35 3.122-4.526 1.187-1.176 2.529-2.044 4.024-2.601 1.495-.574 3.13-.875 4.902-.905 3.06-.01 5.658.734 7.791 2.231 2.134 1.498 3.766 3.65 4.895 6.46 1.13 2.793 1.71 6.16 1.743 10.1.034 4.045-.535 7.58-1.707 10.605-1.173 3.01-2.994 5.358-5.465 7.045-2.486 1.672-5.676 2.532-9.57 2.58l-.1-12c1.424-.087 2.618-.453 3.583-1.098.964-.644 1.691-1.544 2.182-2.7.49-1.17.729-2.559.715-4.165-.01-1.348-.187-2.476-.528-3.382-.34-.906-.809-1.592-1.403-2.057a3.272 3.272 0 0 0-2.029-.71 2.873 2.873 0 0 0-1.858.72c-.541.444-1.02 1.175-1.436 2.194-.431 1.018-.829 2.393-1.193 4.123l-.962 4.645c-.86 4.128-2.325 7.39-4.396 9.787-2.086 2.38-4.948 3.579-8.584 3.594-2.954.04-5.544-.727-7.77-2.3-2.24-1.587-3.993-3.792-5.259-6.615C1.623 26.83.975 23.57.944 19.889c-.031-3.757.57-7.012 1.806-9.765C3.984 7.37 5.74 5.243 8.015 3.739c2.26-1.519 4.913-2.298 7.958-2.339l.1 12.09Z"/></mask><path d="m50.617 319.902 1-.008-.006-.743-.713-.209-.281.96Zm.113 13.636-.306.952 1.317.423-.011-1.383-1 .008ZM4.059 318.561l-1 .008.006.723.688.221.306-.952Zm-.144-17.272-.321-.947-.685.232.006.723 1-.008Zm46.417-15.749 1-.009-.012-1.383-1.31.445.322.947Zm.113 13.636.297.954.709-.22-.006-.743-1 .009Zm-33.642 10.461-.297-.955-.709.22.006.743 1-.008Zm.003.363-1 .009.006.742.713.209.281-.96Zm15.469 12.6-1 .008.008 1 1-.008-.008-1Zm-.213-25.636-.008-1-1 .009.008 1 1-.009Zm9.454-.078 1-.008-.008-1-1 .008.008 1Zm.213 25.635.008 1 1-.008-.008-1-1 .008Zm7.888-2.611.113 13.636 2-.016-.113-13.636-2 .016Zm1.418 12.676-46.67-14.977-.612 1.904 46.671 14.977.611-1.904ZM5.058 318.553l-.143-17.272-2 .016.144 17.272 2-.016Zm-.821-16.317 46.416-15.749-.643-1.894-46.416 15.749.643 1.894Zm45.095-16.688.113 13.636 2-.017-.113-13.636-2 .017Zm.816 12.673-33.642 10.461.594 1.91 33.642-10.462-.594-1.909Zm-34.345 11.424.003.364 2-.017-.003-.363-2 .016Zm.722 1.315 33.81 9.902.563-1.92-33.81-9.901-.563 1.919Zm16.75 11.632-.213-25.636-2 .017.213 25.635 2-.016Zm-1.205-24.628 9.455-.078-.017-2-9.454.078.016 2Zm8.446-1.07.213 25.636 2-.017-.213-25.635-2 .016Zm1.205 24.627-9.454.079.016 2 9.454-.079-.016-2Zm8.573-40.464.009 1 1-.008-.009-1-1 .008Zm-46.543.386-1 .008.008 1 1-.008-.008-1Zm1.19-29.125.933.361v-.002l-.933-.359Zm4-5.51.582.813.005-.004-.587-.809Zm10.834-.817-.466.884.007.004.46-.888Zm3.572 3.106.815-.578-.004-.006-.812.584Zm1.993 4.711-.978.206.168.801.819-.007-.009-1Zm.455-.003.008 1 .963-.008.028-.963-1-.029Zm1.477-5.467.872.49.003-.006-.875-.484Zm3.809-3.941.517.856.003-.002-.52-.854Zm12.526.441-.55.835.004.003.546-.838Zm4.729 5.598-.903.429.903-.429Zm-8.237 18.069.008 1 1-.009-.008-1-1 .009Zm-1.27-10.672.797-.603-.005-.007-.792.61Zm-8.035 1.362.921.39.002-.005-.923-.385Zm-.513 9.391-1 .008.009 1 1-.008-.009-1Zm-7.818.065.009 1 1-.008-.009-1-1 .008Zm-.59-8.109.922-.388-.922.388Zm-1.516-1.965-.581.814.003.002.578-.816Zm-5.72.866.805.593.005-.007-.81-.586Zm-1.082 9.282-1 .008.008 1 1-.008-.008-1Zm36.731 11.332-46.544.386.017 2 46.544-.386-.017-2Zm-45.535 1.378-.168-20.181-2 .016.168 20.181 2-.016Zm-.168-20.181c-.029-3.463.415-6.31 1.29-8.575l-1.865-.721c-.993 2.569-1.455 5.684-1.425 9.312l2-.016Zm1.291-8.577c.88-2.29 2.108-3.952 3.65-5.056l-1.166-1.626c-1.923 1.379-3.362 3.391-4.35 5.965l1.866.717Zm3.654-5.06c1.546-1.122 3.386-1.706 5.564-1.724l-.016-2c-2.55.021-4.805.714-6.723 2.105l1.175 1.619Zm5.564-1.724c1.56-.013 2.958.319 4.217.982l.932-1.769c-1.571-.828-3.3-1.228-5.165-1.213l.016 2Zm4.224.986c1.27.656 2.342 1.585 3.22 2.803l1.622-1.169c-1.054-1.463-2.364-2.605-3.924-3.411l-.918 1.777Zm3.215 2.797c.862 1.216 1.477 2.656 1.83 4.338l1.958-.411c-.404-1.918-1.118-3.619-2.157-5.084l-1.631 1.157Zm2.818 5.132.454-.003-.017-2-.454.003.017 2Zm1.445-.974c.055-1.849.508-3.511 1.35-5.006l-1.743-.981c-1.01 1.794-1.542 3.776-1.606 5.928l2 .059Zm1.353-5.012a9.449 9.449 0 0 1 3.45-3.569l-1.033-1.712a11.443 11.443 0 0 0-4.167 4.312l1.75.969Zm3.454-3.571c1.435-.875 3.157-1.339 5.203-1.356l-.017-2c-2.348.019-4.436.556-6.227 1.648l1.041 1.708Zm5.203-1.356c2.36-.02 4.433.578 6.253 1.778l1.101-1.669c-2.172-1.434-4.64-2.132-7.37-2.109l.016 2Zm6.257 1.781c1.822 1.189 3.284 2.904 4.372 5.189l1.806-.859c-1.225-2.574-2.916-4.59-5.085-6.005l-1.093 1.675Zm4.372 5.189c1.08 2.269 1.653 5.023 1.68 8.292l2-.017c-.03-3.488-.641-6.543-1.874-9.134l-1.806.859Zm1.68 8.292.181 21.908 2-.016-.181-21.909-2 .017Zm-8.014 9.339-.049-5.909-2 .017.05 5.909 1.999-.017Zm-.049-5.909c-.018-2.215-.44-4.056-1.424-5.357l-1.595 1.206c.61.807 1.002 2.142 1.019 4.168l2-.017Zm-1.43-5.364c-1.037-1.347-2.546-1.966-4.358-1.951l.016 2c1.31-.011 2.172.41 2.758 1.171l1.585-1.22Zm-4.358-1.951c-1.247.01-2.37.307-3.316.943l1.115 1.66c.56-.377 1.282-.596 2.217-.603l-.016-2Zm-3.316.943c-.934.627-1.622 1.507-2.075 2.596l1.846.769c.32-.767.771-1.32 1.344-1.705l-1.115-1.66Zm-2.073 2.59c-.453 1.07-.654 2.313-.642 3.699l2-.017c-.01-1.19.164-2.147.484-2.902l-1.842-.78Zm-.642 3.699.05 6.09 2-.016-.05-6.091-2 .017Zm1.058 7.082 9.818-.081-.016-2-9.818.081.017 2Zm-6.826-.943-.043-5.182-2 .017.043 5.181 2-.016Zm-.043-5.182c-.01-1.21-.21-2.319-.625-3.307l-1.844.776c.296.703.461 1.546.47 2.548l2-.017Zm-.625-3.307c-.417-.992-1.032-1.806-1.86-2.393l-1.156 1.632c.482.342.879.838 1.172 1.537l1.844-.776Zm-1.857-2.39c-.868-.621-1.896-.903-3.027-.894l.016 2c.778-.006 1.376.183 1.849.521l1.162-1.627Zm-3.027-.894c-1.712.014-3.124.658-4.085 1.987l1.621 1.172c.538-.744 1.313-1.149 2.48-1.159l-.016-2Zm-4.08 1.979c-.918 1.247-1.335 2.778-1.321 4.521l2-.017c-.012-1.409.322-2.49.932-3.317l-1.61-1.187Zm-1.321 4.521.045 5.363 2-.016-.045-5.364-2 .017Zm1.053 6.355 8.909-.074-.017-2-8.909.074.017 2Zm25.869-73.399.487-.874h-.002l-.485.874Zm8.136 8.092.879-.477-.002-.003-.877.48Zm.167 22.954.883.469.003-.005-.886-.464Zm-8.023 8.203.497.868.005-.003-.502-.865Zm-26.158.217-.485.874v.001l.485-.875Zm-8.135-8.069.878-.478v-.002l-.878.48Zm-.19-22.954.885.465.001-.003-.887-.462Zm8-8.226.5.866v-.001l-.5-.865Zm6.137 11.041.36.932.01-.003-.37-.929Zm-4.337 3.286.823.568.007-.01-.83-.558Zm.088 10.568.817-.576v-.002l-.817.578Zm4.39 3.213-.352.936.004.002.348-.938Zm14.113-.117.362.933.008-.004-.37-.929Zm4.337-3.286.823.568.007-.01-.83-.558Zm-.088-10.568.818-.575-.001-.002-.817.577Zm-4.39-3.213-.352.935.003.002.349-.937Zm-7.177-13.055c5.054-.042 9.254.906 12.645 2.788l.97-1.748c-3.763-2.089-8.323-3.084-13.632-3.04l.017 2Zm12.643 2.787c3.406 1.899 5.978 4.463 7.745 7.698l1.755-.959c-1.956-3.583-4.808-6.413-8.526-8.486l-.974 1.747Zm7.743 7.695c1.762 3.253 2.668 6.901 2.702 10.964l2-.017c-.036-4.361-1.012-8.335-2.943-11.9l-1.759.953Zm2.702 10.964c.034 4.093-.819 7.769-2.54 11.049l1.77.929c1.89-3.598 2.806-7.604 2.77-11.995l-2 .017Zm-2.538 11.044c-1.727 3.251-4.265 5.852-7.641 7.808l1.003 1.73c3.681-2.133 6.492-5.001 8.404-8.599l-1.766-.939Zm-7.637 7.805c-3.36 1.925-7.53 2.935-12.554 2.976l.017 2c5.278-.044 9.804-1.106 13.531-3.24l-.994-1.736Zm-12.554 2.976c-5.056.042-9.247-.899-12.623-2.766l-.968 1.75c3.748 2.074 8.3 3.06 13.608 3.016l-.017-2Zm-12.622-2.765c-3.421-1.9-5.992-4.456-7.742-7.673l-1.757.956c1.943 3.57 4.796 6.393 8.529 8.465l.97-1.748Zm-7.743-7.675c-1.775-3.251-2.689-6.912-2.723-11.005l-2 .016c.037 4.392 1.02 8.382 2.968 11.948l1.755-.959Zm-2.723-11.005c-.033-4.062.819-7.723 2.54-11.004l-1.77-.93c-1.888 3.598-2.806 7.588-2.77 11.95l2-.016Zm2.542-11.007c1.697-3.261 4.225-5.867 7.613-7.822l-1-1.732c-3.699 2.134-6.504 5.013-8.387 8.63l1.774.924Zm7.615-7.823c3.343-1.937 7.518-2.954 12.572-2.996l-.017-2c-5.308.044-9.844 1.114-13.558 3.266l1.003 1.73Zm12.663 8.004c-2.87.023-5.346.425-7.398 1.243l.74 1.858c1.755-.699 3.97-1.079 6.675-1.101l-.017-2Zm-7.389 1.239c-2.074.804-3.698 2.015-4.805 3.661l1.66 1.116c.84-1.249 2.106-2.229 3.868-2.912l-.723-1.865Zm-4.798 3.651c-1.127 1.633-1.652 3.607-1.633 5.861l2-.017c-.016-1.927.43-3.477 1.28-4.708l-1.647-1.136Zm-1.633 5.861c.019 2.255.576 4.224 1.727 5.852l1.633-1.155c-.873-1.234-1.344-2.787-1.36-4.714l-2 .017Zm1.726 5.85c1.133 1.61 2.774 2.791 4.856 3.574l.704-1.872c-1.779-.669-3.064-1.63-3.925-2.853l-1.635 1.151Zm4.86 3.576c2.062.766 4.543 1.118 7.41 1.095l-.016-2c-2.707.022-4.93-.314-6.698-.97l-.696 1.875Zm7.41 1.095c2.87-.024 5.35-.418 7.413-1.217l-.723-1.865c-1.773.687-3.999 1.059-6.706 1.082l.017 2Zm7.421-1.221c2.054-.818 3.671-2.025 4.79-3.647l-1.646-1.136c-.858 1.243-2.131 2.227-3.884 2.925l.74 1.858Zm4.797-3.657c1.106-1.646 1.622-3.622 1.603-5.874l-2 .017c.016 1.93-.423 3.492-1.263 4.741l1.66 1.116Zm1.603-5.874c-.019-2.251-.567-4.213-1.703-5.827l-1.636 1.151c.858 1.218 1.323 2.762 1.34 4.693l2-.017Zm-1.704-5.829c-1.147-1.622-2.787-2.804-4.859-3.574l-.697 1.875c1.759.653 3.045 1.613 3.923 2.854l1.633-1.155Zm-4.855-3.572c-2.078-.782-4.567-1.143-7.438-1.119l.017 2c2.705-.023 4.934.32 6.717.99l.704-1.871ZM2.745 160.214l-1 .008.008 1 1-.008-.008-1Zm-.105-12.636-.008-1-1 .009.008 1 1-.009Zm39.042 2.222-.54.841v.001l.54-.842Zm6.036 6.996.904-.428-.002-.003-.902.431Zm.175 21.044.909.416.002-.004-.911-.412Zm-5.919 7.095.548.837.006-.004-.554-.833Zm-39 2.824-1 .008.008 1 1-.008-.009-1Zm-.106-12.636-.008-1-1 .008.009 1 1-.008Zm32.582-1.225.496.868.005-.003-.5-.865Zm2.615-2.658.873.486.003-.005-.876-.481ZM38 163.513l.865-.501-.865.501Zm-2.658-2.615.486-.873-.005-.003-.481.876Zm-31.598-.692L3.64 147.57l-2 .017.105 12.635 2-.016Zm-1.097-11.628 29.817-.247-.016-2-29.817.247.016 2Zm29.817-.247c3.38-.028 6.258.754 8.676 2.31l1.082-1.682c-2.791-1.796-6.063-2.659-9.774-2.628l.016 2Zm8.678 2.311c2.42 1.551 4.312 3.735 5.673 6.584l1.804-.861c-1.507-3.157-3.639-5.638-6.398-7.407l-1.08 1.684Zm5.67 6.581c1.347 2.849 2.05 6.195 2.083 10.063l2-.016c-.034-4.102-.782-7.744-2.274-10.902l-1.808.855Zm2.083 10.063c.032 3.9-.617 7.272-1.915 10.142l1.823.824c1.44-3.183 2.126-6.852 2.092-10.982l-2 .016Zm-1.913 10.138c-1.313 2.872-3.169 5.087-5.563 6.678l1.108 1.666c2.73-1.815 4.82-4.33 6.274-7.512l-1.819-.832Zm-5.557 6.675c-2.393 1.567-5.26 2.384-8.644 2.412l.017 2c3.707-.03 6.962-.931 9.723-2.739l-1.096-1.673Zm-8.644 2.412-29.817.248.017 2 29.817-.248-.017-2ZM3.973 187.75l-.105-12.636-2 .017.105 12.636 2-.017Zm-1.096-11.627 28.726-.239-.017-2-28.726.239.017 2Zm28.726-.239c1.592-.013 3.048-.378 4.343-1.118l-.991-1.737c-.968.553-2.082.845-3.368.855l.016 2Zm4.348-1.121a7.886 7.886 0 0 0 2.987-3.037l-1.747-.973a5.883 5.883 0 0 1-2.242 2.279l1.002 1.731Zm2.99-3.042c.718-1.307 1.06-2.769 1.046-4.361l-2 .017c.01 1.286-.263 2.405-.799 3.381l1.753.963Zm1.046-4.361c-.013-1.605-.378-3.064-1.12-4.348l-1.732 1.002c.548.947.841 2.059.852 3.363l2-.017Zm-1.12-4.348a7.88 7.88 0 0 0-3.038-2.987l-.973 1.747a5.884 5.884 0 0 1 2.28 2.242l1.73-1.002Zm-3.043-2.99c-1.307-.718-2.77-1.059-4.361-1.046l.016 2c1.287-.011 2.406.263 3.382.799l.963-1.753Zm-4.361-1.046-28.727.238.017 2 28.726-.238-.016-2Zm-18.68-16.215.008 1 1-.008-.009-1-1 .008Zm-10.182.084-1 .009.008 1 1-.009-.008-1Zm-.336-40.453-.008-1-1 .009.008 1 1-.009Zm10.181-.084 1-.008-.008-1-1 .008.008 1Zm.117 13.999-1 .009.008 1 1-.009-.008-1Zm36.362-.301 1-.009-.008-1-1 .009.008 1Zm.103 12.454.009 1 1-.009-.009-.999-1 .008Zm-36.362.301-.008-.999-1 .008.008 1 1-.009Zm.108 13-10.182.085.017 1.999 10.181-.084-.016-2ZM3.6 142.837l-.336-40.453-2 .017.336 40.453 2-.017Zm-1.328-39.445 10.182-.084-.017-2-10.181.084.016 2Zm9.174-1.076.116 14 2-.017-.117-13.999-2 .016Zm1.124 14.991 36.362-.301-.016-2-36.363.301.017 2Zm35.354-1.293.103 12.454 2-.016-.103-12.455-2 .017Zm1.095 11.446-36.362.302.016 1.999 36.363-.301-.017-2Zm-37.354 1.31.116 13.999 2-.016-.116-14-2 .017ZM1.891 57.343l-1 .008.009 1 1-.008-.009-1Zm-.105-12.636-.008-1-1 .008.009 1 1-.008Zm39.043 2.221-.541.842h.001l.54-.842Zm6.035 6.996.905-.427-.002-.004-.903.431Zm.175 21.045.91.416.001-.004-.91-.412Zm-5.919 7.095.549.836.005-.004-.553-.832Zm-39 2.823-1 .008.008 1 1-.008-.008-1Zm-.105-12.636-.008-1-1 .009.008 1 1-.009Zm32.582-1.225.496.869.005-.003-.501-.866Zm2.614-2.658.874.487.003-.005-.877-.482Zm-.064-7.727.866-.5-.866.5Zm-2.658-2.614.486-.874-.005-.003-.481.877Zm-31.598-.693-.105-12.636-2 .017.105 12.636 2-.017ZM1.795 45.707l29.817-.248-.017-2-29.817.248.017 2Zm29.817-.248c3.38-.028 6.258.755 8.676 2.31l1.082-1.682c-2.791-1.795-6.064-2.658-9.775-2.628l.017 2Zm8.677 2.311c2.42 1.552 4.313 3.735 5.673 6.585l1.805-.862c-1.508-3.157-3.639-5.637-6.398-7.406l-1.08 1.683Zm5.671 6.581c1.346 2.85 2.05 6.195 2.082 10.064l2-.017c-.034-4.101-.781-7.743-2.273-10.901l-1.809.854Zm2.082 10.064c.033 3.9-.616 7.272-1.914 10.142l1.822.824c1.44-3.183 2.127-6.853 2.092-10.983l-2 .017ZM46.13 74.553c-1.314 2.872-3.17 5.086-5.563 6.678l1.107 1.665c2.73-1.814 4.82-4.33 6.275-7.511l-1.82-.832Zm-5.558 6.674c-2.393 1.568-5.26 2.385-8.643 2.413l.016 2c3.708-.03 6.963-.931 9.723-2.74l-1.096-1.673ZM31.93 83.64l-29.817.247.016 2 29.817-.247-.016-2Zm-28.81 1.239-.104-12.636-2 .017.105 12.635 2-.016ZM2.024 73.251l28.727-.238-.017-2-28.726.238.016 2Zm28.727-.238c1.592-.013 3.048-.379 4.343-1.118l-.992-1.737c-.967.552-2.081.844-3.368.855l.017 2Zm4.348-1.121a7.886 7.886 0 0 0 2.987-3.037l-1.748-.973a5.887 5.887 0 0 1-2.24 2.279l1 1.731Zm2.99-3.042c.718-1.307 1.059-2.77 1.046-4.361l-2 .016c.01 1.287-.263 2.406-.8 3.382l1.754.963Zm1.046-4.361c-.014-1.605-.378-3.065-1.121-4.349l-1.731 1.002c.548.948.84 2.06.852 3.363l2-.016Zm-1.121-4.349a7.886 7.886 0 0 0-3.038-2.987l-.972 1.748a5.886 5.886 0 0 1 2.279 2.241l1.73-1.002Zm-3.043-2.99c-1.307-.717-2.769-1.059-4.36-1.046l.016 2c1.287-.01 2.405.263 3.382.8l.962-1.754Zm-4.36-1.046-28.727.239.017 2 28.726-.239-.017-2ZM16.072 13.491l.088.996.92-.082-.008-.923-1 .009Zm-3.53 1.734.767.64.005-.006-.773-.634Zm-.732 7.779.935-.356-.004-.009-.93.365Zm1.265 1.807-.59.808.59-.808Zm1.824.599.045-1h-.031l-.014 1Zm1.52-.308.454.89.018-.009.018-.01-.49-.871Zm1.195-1.146.822.57.005-.009.006-.008-.833-.553Zm1.687-4.856-.98-.201-.001.008.98.193Zm.786-3.825.98.202v-.002l-.98-.2Zm2.104-6.63.903.43-.902-.43Zm3.122-4.527.7.715.004-.005-.704-.71Zm4.024-2.601.35.936.008-.003-.358-.933ZM34.24.612l-.003-1h-.014l.017 1Zm7.791 2.231.575-.818-.575.818Zm4.895 6.46-.928.373.001.001.927-.374Zm.035 20.705.932.363.001-.002-.932-.361Zm-5.464 7.045.558.83.006-.004-.564-.826Zm-9.57 2.58-1 .008.009 1.004 1.003-.012-.012-1Zm-.1-12-.06-.998-.947.058.008.948 1-.008Zm3.583-1.098.555.832-.555-.832Zm2.182-2.7.92.39.002-.004-.922-.386Zm.187-7.547.936-.352-.936.352Zm-1.403-2.057.616-.788-.616.788Zm-2.029-.71.012-1h-.041l.03 1Zm-1.858.72.634.773.012-.01.011-.01-.657-.753Zm-1.436 2.194.921.39.005-.012-.926-.378Zm-1.193 4.123-.979-.206v.004l.979.202Zm-.962 4.645.98.204v-.002l-.98-.202Zm-4.396 9.787.752.659.005-.005-.757-.654Zm-8.584 3.594-.004-1h-.01l.014 1Zm-7.77-2.3-.577.816v.001l.578-.817ZM2.89 29.67l-.913.407v.002l.913-.41Zm-.14-19.545.913.409-.912-.41Zm5.266-6.385.551.834.007-.004-.558-.83ZM15.973 1.4l1-.008-.008-1.005L15.96.4l.013 1Zm.012 11.095c-1.738.153-3.18.834-4.215 2.095l1.545 1.27c.644-.784 1.556-1.26 2.847-1.373l-.177-1.992Zm-4.21 2.089c-1.057 1.267-1.485 3.071-1.468 5.227l2-.016c-.016-1.935.38-3.183 1.003-3.93l-1.536-1.281Zm-1.468 5.227c.012 1.374.188 2.573.573 3.557l1.862-.729c-.265-.677-.424-1.612-.435-2.844l-2 .016Zm.57 3.548c.356.94.877 1.725 1.61 2.26l1.179-1.615c-.334-.244-.657-.664-.92-1.356l-1.87.71Zm1.61 2.26a4.09 4.09 0 0 0 2.399.79l.028-2a2.09 2.09 0 0 1-1.248-.405l-1.18 1.615Zm2.367.79a3.986 3.986 0 0 0 2.02-.416l-.909-1.782a1.989 1.989 0 0 1-1.02.2l-.091 1.998Zm2.056-.436c.599-.336 1.102-.836 1.527-1.448l-1.644-1.14c-.294.425-.587.69-.863.845l.98 1.743Zm1.538-1.464c.404-.608.75-1.352 1.05-2.209l-1.89-.66c-.262.754-.542 1.334-.826 1.762l1.666 1.107Zm1.05-2.209c.3-.862.56-1.866.785-3.006l-1.962-.387c-.212 1.076-.45 1.985-.712 2.734l1.888.659Zm.783-2.998.787-3.825-1.96-.403-.786 3.825 1.96.403Zm.787-3.827c.513-2.522 1.192-4.65 2.027-6.4l-1.805-.862c-.922 1.933-1.646 4.225-2.182 6.864l1.96.398Zm2.027-6.4c.839-1.757 1.816-3.163 2.919-4.242l-1.4-1.43c-1.301 1.275-2.405 2.886-3.324 4.81l1.805.862Zm2.923-4.247c1.091-1.081 2.313-1.869 3.67-2.375l-.7-1.873c-1.634.61-3.095 1.556-4.378 2.828l1.408 1.42Zm3.678-2.378c1.375-.527 2.893-.81 4.56-.838l-.033-2c-1.877.032-3.627.352-5.243.97l.716 1.868Zm4.547-.838c2.891-.01 5.277.69 7.214 2.05l1.149-1.637C40.275.389 37.467-.4 34.236-.388l.007 2Zm7.214 2.05c1.951 1.369 3.472 3.355 4.541 6.014l1.856-.746c-1.19-2.96-2.932-5.28-5.248-6.905l-1.149 1.637Zm4.542 6.015c1.07 2.648 1.638 5.883 1.67 9.733l2-.016c-.033-4.028-.627-7.526-1.816-10.466L46 9.678Zm1.67 9.733c.033 3.95-.523 7.354-1.64 10.236l1.865.723c1.227-3.168 1.81-6.834 1.775-10.975l-2 .017Zm-1.64 10.235c-1.104 2.837-2.805 5.018-5.096 6.582l1.128 1.652c2.65-1.81 4.593-4.326 5.832-7.508l-1.863-.726Zm-5.09 6.579c-2.283 1.535-5.267 2.363-9.024 2.409l.024 2c4.031-.05 7.426-.94 10.116-2.75l-1.116-1.66Zm-8.012 3.4-.1-12-2 .017.1 12 2-.017ZM31.89 28.631c1.56-.096 2.934-.501 4.076-1.264l-1.111-1.663c-.787.526-1.8.852-3.088.931l.123 1.996Zm4.076-1.264c1.14-.762 1.987-1.822 2.547-3.141l-1.84-.781c-.422.991-1.029 1.732-1.818 2.259l1.111 1.663Zm2.55-3.146c.554-1.324.806-2.852.792-4.56l-2 .017c.013 1.505-.212 2.753-.638 3.77l1.845.773Zm.792-4.56c-.012-1.423-.197-2.675-.592-3.725l-1.872.704c.287.762.454 1.765.464 3.038l2-.016Zm-.592-3.725c-.387-1.03-.948-1.887-1.724-2.493L35.76 15.02c.414.324.789.839 1.083 1.62l1.872-.703Zm-1.724-2.493a4.271 4.271 0 0 0-2.632-.922l-.024 2c.54.006 1.004.169 1.425.498l1.232-1.576Zm-2.673-.922a3.871 3.871 0 0 0-2.486.966l1.314 1.508c.349-.304.745-.46 1.23-.475l-.058-1.999Zm-2.462.946c-.724.593-1.283 1.496-1.729 2.59l1.852.756c.385-.944.784-1.504 1.144-1.799l-1.267-1.547Zm-1.724 2.578c-.466 1.102-.88 2.546-1.25 4.307l1.956.412c.358-1.7.74-3.005 1.136-3.94l-1.842-.779Zm-1.251 4.31L27.919 25l1.959.405.961-4.644-1.958-.405ZM27.919 25c-.836 4.015-2.244 7.105-4.173 9.337l1.513 1.308c2.213-2.56 3.735-5.996 4.618-10.237l-1.958-.408ZM23.75 34.33c-1.868 2.132-4.44 3.239-7.836 3.253l.008 2c3.876-.016 7.028-1.306 9.332-3.935L23.75 34.33Zm-7.845 3.253c-2.762.037-5.141-.676-7.18-2.116L7.573 37.1c2.412 1.705 5.213 2.525 8.36 2.483l-.027-2Zm-7.178-2.116C6.65 33.998 5.004 31.941 3.8 29.26l-1.824.818c1.33 2.965 3.19 5.319 5.594 7.022l1.156-1.632Zm-4.925-6.207c-1.2-2.691-1.828-5.811-1.858-9.38l-2 .016c.032 3.795.7 7.194 2.032 10.18l1.826-.816Zm-1.858-9.38c-.03-3.648.555-6.755 1.718-9.348l-1.825-.819C.531 12.627-.088 16.03-.056 19.897l2-.016Zm1.718-9.348c1.166-2.599 2.804-4.571 4.904-5.96L7.464 2.905c-2.45 1.619-4.323 3.903-5.627 6.81l1.825.818Zm4.91-5.964c2.081-1.398 4.54-2.13 7.414-2.169l-.026-2c-3.216.043-6.063.87-8.503 2.509l1.116 1.66Zm6.401-3.16.1 12.09 2-.017-.1-12.09-2 .016Z" fill="#05C2DF" fill-opacity=".1" mask="url('#path-1-outside-1_1_400')"/></svg>