<svg width="51" height="334" fill="none" xmlns="http://www.w3.org/2000/svg"><mask id="path-1-outside-1_1_10674" maskUnits="userSpaceOnUse" x="-1" y="-1.449" width="53.786" height="336.412" fill="#000"><path fill="#fff" d="M-1-1.449h53.786v336.412H-1z"/><path d="M1.125 14.048 1.012.412l46.67 14.977.144 17.272L1.41 48.411l-.113-13.636 33.641-10.462-.003-.363-33.81-9.902Zm18.341-2.698.213 25.636-9.454.078-.213-25.635 9.454-.079ZM1.447 52.893l46.545-.386.167 20.181c.03 3.546-.423 6.527-1.358 8.944-.934 2.432-2.267 4.269-4 5.51-1.731 1.257-3.78 1.895-6.143 1.915-1.712.014-3.275-.352-4.69-1.097-1.416-.731-2.607-1.767-3.572-3.107-.95-1.34-1.615-2.911-1.994-4.711l-.454.004c-.06 2-.552 3.823-1.478 5.467a10.448 10.448 0 0 1-3.808 3.94c-1.613.984-3.518 1.484-5.715 1.502-2.546.021-4.816-.626-6.812-1.943-1.996-1.302-3.572-3.168-4.728-5.597-1.157-2.43-1.75-5.335-1.777-8.713l-.182-21.909Zm10.196 12.553.05 5.909c.017 2.12.424 3.708 1.22 4.762.813 1.054 1.999 1.575 3.56 1.562 1.09-.01 2.012-.267 2.766-.773.753-.507 1.323-1.224 1.71-2.15.386-.913.573-2.013.563-3.301l-.05-6.09-9.819.08Zm17.636-.147.043 5.182c.01 1.106.192 2.082.547 2.927.356.846.861 1.5 1.516 1.965.671.48 1.484.715 2.438.707 1.44-.012 2.534-.536 3.283-1.573.764-1.036 1.14-2.343 1.126-3.918l-.044-5.364-8.909.074Zm-3.83 75.239c-5.182.043-9.562-.928-13.139-2.914-3.562-1.985-6.274-4.683-8.135-8.092-1.847-3.409-2.788-7.219-2.822-11.431-.036-4.242.85-8.083 2.654-11.522 1.82-3.425 4.495-6.159 8.023-8.204 3.544-2.03 7.892-3.065 13.043-3.108 5.182-.043 9.553.92 13.115 2.891 3.578 1.986 6.29 4.676 8.136 8.069 1.861 3.409 2.81 7.235 2.845 11.477.035 4.212-.85 8.038-2.655 11.477-1.79 3.439-4.456 6.181-8 8.226-3.529 2.044-7.884 3.088-13.065 3.131Zm-.108-12.999c2.788-.024 5.133-.414 7.036-1.172 1.918-.744 3.363-1.839 4.336-3.287.988-1.432 1.474-3.194 1.456-5.285-.017-2.09-.532-3.851-1.543-5.282-.997-1.416-2.46-2.488-4.39-3.214-1.916-.711-4.267-1.056-7.055-1.032-2.788.023-5.14.406-7.059 1.149-1.903.758-3.348 1.854-4.337 3.286-.972 1.448-1.45 3.217-1.433 5.308.017 2.091.524 3.844 1.521 5.26 1.012 1.431 2.476 2.502 4.39 3.214 1.93.726 4.29 1.078 7.078 1.055Zm23.657 46.197.104 12.636-29.817.247c-3.545.03-6.62-.793-9.225-2.469-2.59-1.66-4.602-3.992-6.036-6.995-1.419-3.004-2.145-6.498-2.178-10.483-.033-4.015.635-7.535 2.004-10.562 1.384-3.027 3.357-5.392 5.918-7.095 2.577-1.688 5.639-2.547 9.184-2.576l29.817-.248.105 12.636-28.726.239c-1.44.012-2.725.341-3.856.986a6.891 6.891 0 0 0-2.614 2.658c-.627 1.142-.935 2.433-.923 3.872.012 1.454.341 2.74.987 3.855a6.887 6.887 0 0 0 2.658 2.615c1.142.627 2.432.934 3.871.922l28.727-.238Zm-10.038 17.453 10.182-.084.335 40.453-10.181.084-.116-13.999-36.363.302-.103-12.455 36.362-.301-.116-14Zm10.891 85.418.105 12.636-29.817.248c-3.546.029-6.62-.794-9.226-2.469-2.59-1.661-4.601-3.993-6.035-6.996-1.419-3.003-2.145-6.497-2.178-10.482-.033-4.015.634-7.536 2.003-10.563 1.384-3.026 3.357-5.391 5.919-7.094 2.577-1.688 5.638-2.547 9.183-2.577l29.817-.247.105 12.636-28.726.238c-1.44.012-2.724.341-3.855.987a6.878 6.878 0 0 0-2.615 2.658c-.627 1.142-.934 2.432-.922 3.871.012 1.455.34 2.74.986 3.856a6.884 6.884 0 0 0 2.658 2.614c1.142.627 2.432.935 3.872.923l28.726-.239ZM35.668 320.46c1.514-.134 2.691-.712 3.531-1.734.84-1.007 1.252-2.534 1.235-4.579-.01-1.303-.179-2.37-.504-3.2-.31-.816-.731-1.419-1.265-1.808a3.09 3.09 0 0 0-1.823-.599 2.993 2.993 0 0 0-1.52.308c-.438.246-.836.629-1.196 1.147-.344.518-.656 1.179-.938 1.985-.28.805-.53 1.762-.749 2.87l-.786 3.825c-.524 2.58-1.226 4.79-2.104 6.631-.879 1.841-1.92 3.349-3.122 4.526-1.187 1.177-2.528 2.044-4.024 2.602-1.495.573-3.13.874-4.902.904-3.06.01-5.657-.733-7.791-2.231-2.134-1.497-3.765-3.651-4.895-6.459-1.13-2.794-1.71-6.161-1.743-10.1-.033-4.045.536-7.58 1.708-10.605 1.172-3.01 2.993-5.359 5.464-7.046 2.486-1.672 5.676-2.532 9.57-2.58l.1 12c-1.424.088-2.618.454-3.582 1.098-.965.644-1.692 1.544-2.183 2.7-.49 1.171-.728 2.559-.715 4.165.011 1.349.187 2.476.528 3.382.341.907.809 1.592 1.404 2.057a3.271 3.271 0 0 0 2.028.71 2.872 2.872 0 0 0 1.858-.72c.542-.444 1.02-1.175 1.436-2.193.431-1.019.83-2.394 1.194-4.124l.961-4.645c.86-4.128 2.325-7.39 4.396-9.786 2.087-2.381 4.948-3.579 8.584-3.594 2.955-.04 5.544.726 7.77 2.299 2.24 1.587 3.993 3.793 5.26 6.615 1.265 2.839 1.914 6.098 1.944 9.78.031 3.758-.57 7.013-1.805 9.765-1.235 2.753-2.99 4.881-5.266 6.385-2.26 1.519-4.913 2.299-7.958 2.339l-.1-12.09Z"/></mask><path d="m1.125 14.048-1 .008.006.743.713.209.28-.96ZM1.012.412l.305-.952L0-.963.012.421l1-.009Zm46.67 14.977 1-.008-.005-.723-.689-.221-.305.952Zm.144 17.272.321.947.685-.232-.006-.723-1 .008ZM1.41 48.411l-1 .008.011 1.383 1.31-.444-.321-.947Zm-.113-13.636L1 33.82l-.71.22.007.743 1-.008Zm33.641-10.462.297.955.71-.22-.007-.743-1 .008Zm-.003-.363 1-.008-.006-.743-.713-.209-.28.96Zm-15.469-12.6 1-.008-.008-1-1 .008.009 1Zm.213 25.636.009 1 1-.008-.009-1-1 .008Zm-9.454.078-1 .009.008 1 1-.009-.008-1Zm-.213-25.635-.008-1-1 .008.008 1 1-.008Zm-7.887 2.61L2.01.405l-2 .017.114 13.635 2-.016ZM.705 1.365l46.672 14.977.611-1.904L1.318-.54.705 1.364Zm45.978 14.034.143 17.272 2-.017-.143-17.272-2 .017Zm.822 16.316L1.088 47.464l.643 1.894 46.416-15.75-.642-1.894ZM2.41 48.402l-.113-13.636-2 .017.113 13.636 2-.017ZM1.594 35.73l33.641-10.462-.594-1.91L1 33.82l.594 1.91Zm34.344-11.425-.003-.363-2 .016.003.364 2-.017Zm-.722-1.315-33.81-9.902-.562 1.92 33.81 9.902.562-1.92ZM18.466 11.36l.213 25.635 2-.016-.212-25.636-2 .017Zm1.205 24.627-9.454.078.016 2 9.454-.078-.016-2Zm-8.446 1.07-.213-25.635-2 .016.213 25.636 2-.017ZM10.02 12.429l9.454-.079-.017-2-9.454.079.017 2ZM1.447 52.893l-.008-1-1 .009.008 1 1-.009Zm46.544-.386 1-.008-.009-1-1 .008.009 1ZM46.8 81.632l-.933-.36v.001l.932.359Zm-4 5.51-.583-.812-.005.003.588.81Zm-10.835.818.466-.885-.007-.004-.459.889Zm-3.571-3.107-.816.578.004.006.812-.584ZM26.4 80.142l.979-.206-.169-.8-.818.006.008 1Zm-.454.004-.009-1-.962.008-.029.962 1 .03Zm-1.478 5.467-.871-.491-.004.006.875.485Zm-3.808 3.94-.517-.856-.004.002.52.854Zm-12.527-.441.55-.835-.004-.003-.546.838Zm-4.728-5.597.903-.43-.903.43Zm8.236-18.07-.008-1-1 .009.008 1 1-.008Zm1.27 10.672-.797.603.005.008.793-.61Zm8.035-1.362-.92-.39-.003.006.923.384Zm.513-9.39 1-.01-.008-1-1 .01.008 1Zm7.818-.066-.008-1-1 .009.008 1 1-.009Zm.59 8.11-.922.387.922-.388Zm1.516 1.964.582-.814-.004-.002-.578.816Zm5.72-.866-.804-.593-.006.008.81.585Zm1.083-9.282 1-.008-.008-1-1 .008.008 1ZM1.455 53.893 48 53.507l-.017-2-46.543.386.016 2Zm45.536-1.377.167 20.18 2-.016-.167-20.181-2 .017Zm.167 20.18c.029 3.463-.415 6.31-1.29 8.575l1.865.721c.994-2.569 1.455-5.684 1.425-9.312l-2 .017Zm-1.29 8.577c-.881 2.29-2.109 3.952-3.65 5.057l1.165 1.625c1.923-1.379 3.362-3.391 4.351-5.965l-1.867-.717Zm-3.655 5.06c-1.546 1.122-3.386 1.706-5.564 1.724l.017 2c2.548-.021 4.804-.713 6.722-2.105l-1.175-1.619Zm-5.564 1.724c-1.559.013-2.958-.319-4.217-.982l-.932 1.77c1.572.828 3.3 1.228 5.166 1.212l-.017-2Zm-4.224-.986c-1.27-.656-2.341-1.585-3.219-2.803l-1.623 1.17c1.055 1.462 2.364 2.605 3.924 3.41l.918-1.777Zm-3.214-2.797c-.863-1.216-1.477-2.656-1.831-4.338l-1.957.412c.403 1.918 1.117 3.618 2.156 5.083l1.632-1.157Zm-2.818-5.132-.455.004.017 2 .454-.004-.016-2Zm-1.446.974c-.055 1.849-.508 3.511-1.35 5.006l1.743.981c1.01-1.793 1.543-3.776 1.606-5.928l-1.999-.059Zm-1.353 5.012a9.45 9.45 0 0 1-3.45 3.57l1.034 1.711a11.448 11.448 0 0 0 4.166-4.312l-1.75-.969ZM20.14 88.7c-1.435.874-3.157 1.338-5.203 1.355l.017 2c2.348-.02 4.436-.556 6.227-1.648l-1.04-1.707Zm-5.203 1.355c-2.36.02-4.433-.578-6.252-1.778l-1.102 1.67c2.173 1.433 4.64 2.131 7.371 2.108l-.017-2Zm-6.257-1.78c-1.822-1.19-3.284-2.904-4.371-5.19l-1.806.86c1.225 2.573 2.916 4.59 5.085 6.005l1.092-1.676Zm-4.371-5.19c-1.08-2.27-1.653-5.023-1.68-8.292l-2 .017c.029 3.488.64 6.543 1.874 9.134l1.806-.86Zm-1.68-8.292-.182-21.908-2 .017.182 21.908 2-.017Zm8.013-9.34.05 5.91 2-.017-.05-5.909-2 .017Zm.05 5.91c.018 2.216.44 4.056 1.423 5.357l1.595-1.206c-.61-.806-1.002-2.141-1.019-4.168l-2 .017Zm1.428 5.365c1.038 1.346 2.547 1.966 4.36 1.95l-.017-2c-1.309.012-2.172-.41-2.758-1.171l-1.585 1.22Zm4.36 1.95c1.246-.01 2.37-.306 3.315-.942l-1.115-1.66c-.56.376-1.282.595-2.217.603l.017 2Zm3.315-.942c.934-.628 1.622-1.508 2.075-2.597l-1.846-.768c-.32.766-.77 1.32-1.344 1.705l1.115 1.66Zm2.073-2.591c.453-1.07.654-2.313.643-3.698l-2 .016c.01 1.19-.165 2.147-.485 2.902l1.842.78Zm.643-3.698-.05-6.091-2 .016.05 6.091 2-.016Zm-1.06-7.083-9.817.082.017 2 9.817-.082-.016-2Zm6.827.944.043 5.181 2-.016-.043-5.182-2 .017Zm.043 5.181c.01 1.21.21 2.32.625 3.307l1.844-.775c-.296-.704-.46-1.546-.469-2.548l-2 .016Zm.625 3.307c.418.992 1.032 1.806 1.86 2.393l1.156-1.632c-.482-.342-.878-.838-1.172-1.536l-1.844.775Zm1.857 2.39c.869.621 1.896.903 3.027.894l-.016-2c-.778.007-1.376-.183-1.848-.52l-1.163 1.627Zm3.027.894c1.712-.014 3.125-.657 4.085-1.987l-1.62-1.171c-.538.743-1.314 1.148-2.481 1.158l.017 2Zm4.08-1.98c.919-1.246 1.336-2.777 1.321-4.52l-2 .017c.012 1.409-.322 2.49-.931 3.317l1.61 1.187Zm1.321-4.52-.044-5.363-2 .017.044 5.363 2-.016Zm-1.052-6.355-8.91.074.017 2 8.91-.074-.017-2Zm-25.87 73.399-.487.874.002.001.485-.875Zm-8.135-8.092-.88.477.002.003.878-.48Zm-.168-22.953-.883-.47-.002.005.885.465Zm8.023-8.204-.497-.868-.004.003.501.865Zm26.158-.217.486-.874h-.002l-.484.874Zm8.136 8.069-.879.478.001.002.878-.48Zm.19 22.954-.885-.464-.002.003.887.461Zm-8 8.226-.5-.866-.001.001.501.865Zm-6.137-11.04-.362-.933-.008.004.37.929Zm4.336-3.287-.823-.567-.007.01.83.557Zm-.087-10.567-.818.575.001.002.817-.577Zm-4.39-3.214.351-.936-.004-.001-.348.937Zm-14.114.117-.361-.932-.01.003.371.929Zm-4.337 3.286-.823-.568-.007.01.83.558Zm.088 10.568-.818.576.002.001.816-.577Zm4.39 3.214.353-.936-.004-.002-.348.938Zm7.177 13.054c-5.054.042-9.253-.906-12.644-2.788l-.971 1.749c3.763 2.089 8.323 3.083 13.632 3.039l-.017-2Zm-12.643-2.787c-3.406-1.899-5.978-4.463-7.745-7.698l-1.755.959c1.957 3.583 4.808 6.413 8.526 8.486l.974-1.747Zm-7.743-7.695c-1.762-3.253-2.668-6.9-2.701-10.963l-2 .016c.036 4.361 1.011 8.335 2.942 11.9l1.759-.953Zm-2.701-10.963c-.034-4.093.818-7.769 2.54-11.05l-1.771-.929c-1.889 3.598-2.806 7.604-2.77 11.995l2-.016Zm2.537-11.045c1.728-3.251 4.266-5.852 7.641-7.807l-1.002-1.73c-3.682 2.132-6.493 5-8.405 8.598l1.766.939Zm7.637-7.805c3.361-1.925 7.53-2.934 12.554-2.976l-.016-2c-5.28.044-9.805 1.106-13.532 3.24l.994 1.736Zm12.554-2.976c5.056-.042 9.248.899 12.623 2.766l.968-1.75c-3.748-2.073-8.3-3.06-13.607-3.016l.016 2Zm12.622 2.766c3.422 1.899 5.992 4.455 7.742 7.672l1.757-.955c-1.942-3.571-4.795-6.394-8.528-8.466l-.971 1.749Zm7.743 7.674c1.776 3.251 2.69 6.912 2.723 11.006l2-.017c-.036-4.391-1.02-8.381-2.968-11.948l-1.755.959Zm2.723 11.006c.034 4.061-.818 7.722-2.54 11.004l1.77.929c1.888-3.597 2.806-7.588 2.77-11.95l-2 .017Zm-2.542 11.007c-1.697 3.26-4.224 5.866-7.613 7.821l1 1.732c3.699-2.134 6.505-5.012 8.387-8.63l-1.774-.923Zm-7.614 7.822c-3.344 1.937-7.518 2.954-12.573 2.996l.017 2c5.309-.044 9.845-1.114 13.558-3.266l-1.002-1.73Zm-12.664-8.003c2.87-.024 5.347-.426 7.398-1.243l-.74-1.858c-1.755.699-3.969 1.078-6.675 1.101l.017 2Zm7.389-1.24c2.074-.804 3.699-2.014 4.805-3.661l-1.66-1.115c-.839 1.248-2.105 2.228-3.868 2.911l.723 1.865Zm4.798-3.651c1.127-1.633 1.652-3.607 1.633-5.861l-2 .017c.017 1.927-.43 3.477-1.279 4.709l1.646 1.135Zm1.633-5.861c-.018-2.254-.576-4.224-1.727-5.852l-1.633 1.155c.873 1.234 1.345 2.787 1.36 4.714l2-.017Zm-1.726-5.85c-1.132-1.609-2.774-2.791-4.856-3.574l-.704 1.872c1.779.669 3.064 1.631 3.925 2.853l1.635-1.151Zm-4.86-3.575c-2.062-.767-4.542-1.119-7.41-1.095l.016 2c2.708-.023 4.93.313 6.698.969l.696-1.874Zm-7.41-1.095c-2.869.023-5.35.417-7.412 1.217l.722 1.865c1.774-.688 3.999-1.06 6.706-1.082l-.016-2Zm-7.421 1.22c-2.053.818-3.67 2.025-4.79 3.647l1.647 1.136c.857-1.243 2.13-2.227 3.883-2.925l-.74-1.858Zm-4.797 3.657c-1.106 1.646-1.622 3.622-1.603 5.874l2-.017c-.016-1.93.424-3.492 1.263-4.741l-1.66-1.116Zm-1.603 5.874c.019 2.251.567 4.213 1.703 5.828l1.636-1.152c-.857-1.218-1.323-2.762-1.339-4.693l-2 .017Zm1.705 5.829c1.146 1.622 2.787 2.804 4.858 3.574l.697-1.875c-1.759-.653-3.045-1.613-3.922-2.853l-1.633 1.154Zm4.854 3.573c2.079.782 4.568 1.142 7.438 1.119l-.017-2c-2.705.022-4.934-.32-6.716-.991l-.705 1.872Zm31.087 46.316 1-.008-.009-1-1 .008.009 1Zm.104 12.636.009 1 1-.008-.009-1-1 .008ZM10.06 184.15l.54-.841v-.001l-.54.842Zm-6.036-6.995-.904.427.002.004.902-.431ZM3.85 156.11l-.91-.416-.001.004.91.412Zm5.918-7.095-.548-.836-.005.003.553.833Zm39.001-2.824 1-.008-.008-1-1 .009.008.999Zm.105 12.636.008 1 1-.008-.008-1-1 .008Zm-32.582 1.225-.496-.868-.005.003.501.865Zm-2.614 2.658-.874-.486-.003.005.877.481Zm.064 7.727-.866.501.866-.501Zm2.658 2.615-.487.874.005.002.482-.876Zm31.598.692.104 12.636 2-.016-.105-12.636-2 .016Zm1.096 11.628-29.817.247.017 2 29.817-.247-.017-2Zm-29.817.247c-3.38.028-6.258-.754-8.676-2.31l-1.082 1.682c2.791 1.796 6.063 2.659 9.774 2.628l-.016-2Zm-8.677-2.311c-2.42-1.551-4.313-3.735-5.673-6.584l-1.805.862c1.507 3.157 3.639 5.637 6.398 7.406l1.08-1.684Zm-5.671-6.58c-1.346-2.849-2.05-6.196-2.083-10.064l-2 .017c.034 4.101.782 7.743 2.274 10.901l1.809-.854Zm-2.083-10.064c-.032-3.9.617-7.272 1.915-10.142l-1.822-.824C1.498 158.881.81 162.55.845 166.681l2-.017Zm1.913-10.138c1.313-2.872 3.17-5.087 5.563-6.678l-1.107-1.666c-2.73 1.815-4.82 4.33-6.275 7.512l1.82.832Zm5.557-6.674c2.394-1.568 5.261-2.385 8.644-2.413l-.016-2c-3.708.031-6.963.931-9.724 2.74l1.096 1.673Zm8.644-2.413 29.817-.248-.016-1.999-29.817.247.016 2Zm28.81-1.239.104 12.636 2-.017-.105-12.636-2 .017Zm1.096 11.627-28.727.239.017 2 28.726-.239-.016-2Zm-28.727.239c-1.592.013-3.048.379-4.343 1.118l.992 1.737c.967-.553 2.081-.845 3.368-.855l-.017-2Zm-4.348 1.121a7.886 7.886 0 0 0-2.987 3.037l1.747.973a5.884 5.884 0 0 1 2.242-2.279l-1.002-1.731Zm-2.99 3.042c-.718 1.307-1.059 2.769-1.046 4.361l2-.016c-.01-1.287.263-2.406.8-3.382l-1.754-.963Zm-1.046 4.361c.014 1.605.378 3.064 1.121 4.348l1.731-1.001c-.548-.948-.841-2.059-.852-3.363l-2 .016Zm1.121 4.348a7.89 7.89 0 0 0 3.037 2.988l.973-1.748a5.888 5.888 0 0 1-2.279-2.241l-1.73 1.001Zm3.043 2.99c1.306.718 2.768 1.059 4.36 1.046l-.016-2c-1.287.011-2.405-.263-3.382-.799l-.962 1.753Zm4.36 1.046 28.727-.238-.017-2-28.726.238.017 2Zm18.681 16.215-.008-1-1 .009.008.999 1-.008Zm10.182-.084 1-.009-.009-1-1 .009.009 1Zm.335 40.453.009 1 1-.008-.009-1-1 .008Zm-10.181.084-1 .009.008 1 1-.009-.008-1Zm-.116-13.999 1-.008-.009-1-1 .008.009 1Zm-36.363.302-1 .008.009 1 1-.009-.009-.999Zm-.103-12.455-.008-1-1 .009.008 1 1-.009Zm36.362-.301.009 1 1-.009-.009-1-1 .009Zm-.108-13 10.182-.084-.017-2-10.181.084.017 2Zm9.174-1.076.335 40.453 2-.016-.335-40.454-2 .017Zm1.327 39.445-10.182.084.017 2 10.182-.084-.017-2Zm-9.173 1.076-.116-13.999-2 .016.116 14 2-.017Zm-1.125-14.991-36.362.302.017 1.999 36.362-.301-.017-2Zm-35.354 1.293-.103-12.454-2 .017.103 12.454 2-.017ZM2.721 206.49l36.363-.301-.017-2-36.362.301.016 2Zm37.354-1.31-.116-13.999-2 .016.116 14 2-.017Zm9.775 71.427 1-.008-.008-1-1 .009.008.999Zm.105 12.636.008 1 1-.008-.008-1-1 .008Zm-39.043-2.221.541-.841v-.001l-.54.842Zm-6.035-6.996-.904.427.001.004.903-.431Zm-.175-21.045-.91-.415v.003l.91.412Zm5.919-7.094-.548-.837-.006.004.554.833Zm39-2.824 1-.008-.008-1-1 .008.008 1Zm.105 12.636.009 1 1-.008-.009-1-1 .008Zm-32.581 1.225-.496-.869-.005.003.5.866Zm-2.615 2.658-.874-.486-.002.005.876.481Zm.064 7.727-.865.501.865-.501Zm2.658 2.614-.486.874.005.003.481-.877Zm31.598.693.105 12.636 2-.017-.105-12.636-2 .017Zm1.097 11.627-29.818.248.017 2 29.817-.248-.016-2Zm-29.818.248c-3.38.028-6.257-.755-8.676-2.31l-1.082 1.682c2.792 1.795 6.064 2.659 9.775 2.628l-.017-2Zm-8.677-2.311c-2.42-1.552-4.312-3.735-5.673-6.585l-1.805.862c1.508 3.157 3.64 5.637 6.399 7.407l1.08-1.684Zm-5.671-6.581c-1.346-2.849-2.05-6.195-2.082-10.063l-2 .016c.034 4.101.782 7.743 2.274 10.901l1.808-.854Zm-2.082-10.063c-.032-3.9.616-7.273 1.914-10.143l-1.822-.824c-1.44 3.184-2.126 6.853-2.092 10.983l2-.016Zm1.913-10.139c1.313-2.872 3.169-5.086 5.563-6.678l-1.108-1.665c-2.73 1.815-4.82 4.33-6.274 7.512l1.819.831Zm5.557-6.674c2.393-1.568 5.26-2.385 8.644-2.413l-.017-2c-3.707.031-6.962.932-9.723 2.74l1.096 1.673Zm8.644-2.413 29.817-.247-.017-2-29.817.247.017 2Zm28.809-1.239.104 12.636 2-.016-.105-12.636-2 .016Zm1.096 11.628-28.726.238.016 2 28.727-.238-.017-2Zm-28.726.238c-1.592.013-3.049.379-4.343 1.118l.991 1.737c.968-.552 2.082-.844 3.368-.855l-.016-2Zm-4.348 1.121a7.882 7.882 0 0 0-2.988 3.038l1.748.972a5.898 5.898 0 0 1 2.241-2.279l-1.001-1.731Zm-2.99 3.043c-.718 1.306-1.06 2.769-1.046 4.361l2-.017c-.011-1.287.262-2.405.799-3.382l-1.753-.962Zm-1.046 4.361c.013 1.605.378 3.064 1.12 4.348l1.732-1.002c-.549-.948-.842-2.059-.852-3.363l-2 .017Zm1.12 4.348a7.888 7.888 0 0 0 3.038 2.987l.973-1.747a5.891 5.891 0 0 1-2.28-2.242l-1.73 1.002Zm3.043 2.99c1.307.718 2.769 1.059 4.361 1.046l-.017-2c-1.286.011-2.405-.263-3.381-.799l-.963 1.753Zm4.361 1.046 28.726-.239-.016-1.999-28.726.238.016 2Zm14.536 42.614-.088-.997-.92.082.008.923 1-.008Zm3.531-1.734-.768-.641-.005.006.773.635Zm.731-7.779-.935.355.004.009.931-.364Zm-1.265-1.808.59-.808-.59.808Zm-1.823-.599-.046.999.016.001h.016l.014-1Zm-1.52.308-.455-.89-.018.009-.018.01.49.871Zm-1.196 1.147-.821-.57-.006.008-.005.008.833.554Zm-1.687 4.855.98.201.002-.008-.982-.193Zm-.786 3.825-.98-.202v.003l.98.199Zm-2.104 6.631-.903-.431.903.431Zm-3.122 4.526-.7-.715-.004.005.704.71Zm-4.024 2.602-.35-.937-.008.003.358.934Zm-4.902.904.004 1h.013l-.017-1Zm-7.791-2.231-.575.819.575-.819Zm-4.895-6.459.928-.374v-.001l-.928.375Zm-.035-20.705-.932-.363v.001l.932.362Zm5.464-7.046-.558-.83-.006.004.564.826Zm9.57-2.58 1-.008-.008-1.004-1.004.013.012.999Zm.1 12 .061.998.947-.058-.008-.948-1 .008Zm-3.582 1.098-.556-.831.556.831Zm-2.183 2.7-.92-.391-.002.005.922.386Zm-.187 7.547-.936.352.936-.352Zm1.404 2.057-.616.788.616-.788Zm2.028.71-.011 1 .02.001.02-.001-.029-1Zm1.858-.72-.634-.773-.011.01-.012.01.657.753Zm1.436-2.193-.92-.39-.005.012.925.378Zm1.194-4.124.978.206v-.003l-.979-.203Zm.961-4.645-.979-.203v.001l.979.202Zm4.396-9.786-.752-.659-.004.005.756.654Zm8.584-3.594.005 1 .009-.001-.014-.999Zm7.77 2.299.578-.816-.001-.001-.577.817Zm5.26 6.615.913-.407-.001-.002-.913.409Zm.139 19.545-.913-.409.913.409Zm-5.266 6.385-.551-.834-.006.004.557.83Zm-7.958 2.339-1 .008.009 1.005 1.005-.013-.014-1Zm-.012-11.094c1.738-.154 3.18-.834 4.216-2.095l-1.546-1.27c-.643.783-1.556 1.258-2.846 1.372l.176 1.993Zm4.211-2.09c1.057-1.266 1.485-3.071 1.467-5.227l-2 .016c.016 1.935-.38 3.183-1.003 3.93l1.536 1.281Zm1.467-5.227c-.011-1.374-.188-2.573-.573-3.557l-1.862.729c.265.678.425 1.612.435 2.844l2-.016Zm-.57-3.547c-.356-.94-.877-1.726-1.61-2.261l-1.179 1.616c.335.244.658.663.92 1.355l1.87-.71Zm-1.61-2.261a4.093 4.093 0 0 0-2.398-.791l-.028 2c.482.007.887.143 1.247.407l1.18-1.616Zm-2.366-.79a3.992 3.992 0 0 0-2.021.417l.91 1.781a1.996 1.996 0 0 1 1.02-.2l.09-1.998Zm-2.057.436c-.598.337-1.102.836-1.526 1.448l1.643 1.14c.295-.425.588-.69.864-.845l-.98-1.743Zm-1.537 1.464c-.404.608-.75 1.352-1.05 2.209l1.889.66c.263-.754.542-1.334.826-1.762l-1.665-1.107Zm-1.05 2.209c-.3.862-.561 1.866-.786 3.007l1.963.386c.211-1.075.45-1.984.712-2.733l-1.889-.66Zm-.784 2.998-.787 3.825 1.96.403.786-3.825-1.96-.403Zm-.787 3.828c-.512 2.522-1.192 4.65-2.027 6.399l1.805.862c.923-1.932 1.646-4.225 2.182-6.863l-1.96-.398Zm-2.027 6.399c-.838 1.757-1.815 3.163-2.918 4.242l1.399 1.43c1.302-1.274 2.405-2.886 3.324-4.81l-1.805-.862Zm-2.923 4.247c-1.091 1.081-2.313 1.869-3.67 2.375l.7 1.874c1.634-.61 3.095-1.557 4.378-2.829l-1.408-1.42Zm-3.678 2.378c-1.375.527-2.892.81-4.56.838l.033 2c1.877-.032 3.628-.352 5.243-.971l-.716-1.867Zm-4.547.838c-2.89.01-5.277-.69-7.214-2.049l-1.149 1.637c2.331 1.636 5.14 2.423 8.37 2.412l-.007-2Zm-7.214-2.049c-1.95-1.37-3.472-3.356-4.541-6.015l-1.856.747c1.19 2.958 2.932 5.279 5.248 6.905l1.15-1.637Zm-4.542-6.016c-1.07-2.648-1.638-5.883-1.67-9.733l-2 .016c.034 4.029.628 7.526 1.816 10.466l1.854-.749Zm-1.67-9.733c-.033-3.949.524-7.354 1.64-10.236l-1.865-.723c-1.227 3.168-1.809 6.834-1.775 10.975l2-.016Zm1.64-10.235c1.105-2.837 2.805-5.018 5.096-6.582l-1.128-1.652c-2.65 1.81-4.593 4.327-5.832 7.509l1.864.725Zm5.09-6.578c2.283-1.536 5.268-2.364 9.024-2.41l-.024-1.999c-4.03.049-7.426.94-10.116 2.749l1.116 1.66Zm8.012-3.401.1 11.999 2-.016-.1-12-2 .017Zm1.038 10.993c-1.56.096-2.934.502-4.076 1.265l1.111 1.662c.787-.525 1.8-.852 3.088-.931l-.123-1.996Zm-4.076 1.265c-1.14.761-1.987 1.821-2.547 3.14l1.841.782c.42-.992 1.028-1.732 1.817-2.26l-1.11-1.662Zm-2.549 3.145c-.554 1.324-.807 2.853-.793 4.559l2-.016c-.012-1.505.212-2.753.638-3.771l-1.845-.772Zm-.793 4.559c.012 1.424.197 2.676.592 3.726l1.872-.704c-.287-.762-.453-1.764-.464-3.038l-2 .016Zm.592 3.726c.388 1.031.949 1.887 1.724 2.493l1.231-1.576c-.414-.324-.789-.839-1.083-1.621l-1.872.704Zm1.724 2.493a4.27 4.27 0 0 0 2.633.922l.023-2a2.273 2.273 0 0 1-1.425-.498l-1.231 1.576Zm2.674.922a3.875 3.875 0 0 0 2.485-.966l-1.314-1.507a1.88 1.88 0 0 1-1.23.474l.059 1.999Zm2.462-.946c.724-.593 1.282-1.496 1.728-2.589l-1.851-.756c-.386.944-.785 1.503-1.145 1.798l1.268 1.547Zm1.723-2.578c.467-1.102.88-2.546 1.251-4.307l-1.957-.412c-.358 1.7-.74 3.005-1.136 3.94l1.842.779Zm1.252-4.31.961-4.645-1.958-.405-.962 4.644 1.959.406Zm.961-4.644c.836-4.015 2.245-7.105 4.174-9.336l-1.513-1.308c-2.213 2.56-3.736 5.995-4.619 10.237l1.958.407Zm4.17-9.331c1.868-2.133 4.439-3.239 7.835-3.253l-.008-2c-3.876.016-7.028 1.305-9.332 3.935l1.504 1.318Zm7.845-3.254c2.762-.037 5.14.676 7.179 2.116l1.154-1.633c-2.413-1.705-5.213-2.525-8.36-2.482l.027 1.999Zm7.178 2.116c2.077 1.471 3.723 3.528 4.925 6.209l1.825-.819c-1.33-2.965-3.19-5.319-5.594-7.022l-1.156 1.632Zm4.924 6.207c1.2 2.691 1.829 5.811 1.858 9.38l2-.016c-.031-3.794-.7-7.194-2.031-10.179l-1.827.815Zm1.858 9.38c.03 3.648-.554 6.755-1.718 9.348l1.825.819c1.306-2.912 1.925-6.316 1.893-10.183l-2 .016Zm-1.718 9.348c-1.165 2.599-2.803 4.572-4.904 5.96l1.103 1.669c2.45-1.62 4.322-3.904 5.626-6.81l-1.825-.819Zm-4.91 5.964c-2.08 1.398-4.54 2.131-7.414 2.169l.026 2c3.216-.043 6.063-.869 8.503-2.509l-1.115-1.66Zm-6.4 3.161-.101-12.091-2 .017.1 12.09 2-.016Z" fill="#05C2DF" mask="url('#path-1-outside-1_1_10674')"/></svg>