<svg width="52" height="334" fill="none" xmlns="http://www.w3.org/2000/svg"><mask id="path-1-outside-1_1_10677" maskUnits="userSpaceOnUse" x="-1.037" y="-1.304" width="53.786" height="336.412" fill="#000"><path fill="#fff" d="M-1.037-1.304h53.786v336.412H-1.037z"/><path d="m50.623 319.611.114 13.636L4.065 318.27l-.143-17.272 46.416-15.749.114 13.636-33.642 10.461.003.363 33.81 9.902Zm-18.341 2.698-.213-25.636 9.454-.078.213 25.635-9.454.079Zm18.02-41.543-46.545.386-.167-20.181c-.03-3.545.423-6.527 1.358-8.944.934-2.432 2.267-4.269 4-5.51 1.731-1.257 3.78-1.895 6.143-1.915 1.712-.014 3.276.352 4.69 1.098 1.416.73 2.607 1.766 3.572 3.106.95 1.341 1.615 2.911 1.994 4.711l.454-.003c.06-2.001.552-3.823 1.478-5.467a10.447 10.447 0 0 1 3.808-3.941c1.613-.983 3.518-1.484 5.715-1.502 2.546-.021 4.816.627 6.812 1.943 1.996 1.302 3.572 3.168 4.729 5.598 1.156 2.43 1.748 5.334 1.776 8.712l.182 21.909Zm-10.196-12.552-.05-5.909c-.017-2.121-.424-3.709-1.22-4.763-.813-1.054-1.999-1.574-3.56-1.561-1.09.009-2.012.266-2.766.772-.753.507-1.323 1.224-1.71 2.151-.386.912-.573 2.013-.563 3.3l.05 6.091 9.819-.081Zm-17.636.146-.043-5.182c-.01-1.106-.192-2.082-.547-2.927-.355-.846-.861-1.501-1.516-1.965-.671-.479-1.484-.715-2.438-.707-1.44.012-2.534.536-3.283 1.573-.764 1.036-1.14 2.343-1.126 3.918l.044 5.364 8.909-.074Zm3.83-75.239c5.182-.043 9.561.928 13.139 2.914 3.562 1.986 6.274 4.683 8.135 8.092 1.847 3.409 2.788 7.219 2.823 11.431.035 4.243-.85 8.083-2.655 11.523-1.82 3.424-4.494 6.158-8.023 8.203-3.544 2.029-7.892 3.065-13.043 3.108-5.182.043-9.553-.921-13.115-2.891-3.577-1.986-6.29-4.675-8.136-8.069-1.861-3.409-2.81-7.235-2.845-11.477-.035-4.212.85-8.038 2.655-11.477 1.79-3.439 4.456-6.181 8-8.226 3.529-2.044 7.884-3.088 13.066-3.131Zm.108 13c-2.788.023-5.133.413-7.036 1.172-1.918.743-3.363 1.838-4.336 3.286-.988 1.432-1.474 3.194-1.456 5.285.017 2.091.532 3.851 1.543 5.283.997 1.416 2.46 2.487 4.39 3.213 1.916.712 4.267 1.056 7.055 1.033 2.788-.024 5.14-.407 7.06-1.15 1.902-.758 3.347-1.853 4.336-3.286.973-1.447 1.45-3.217 1.433-5.308-.017-2.09-.524-3.844-1.521-5.26-1.012-1.431-2.475-2.502-4.39-3.213-1.93-.727-4.29-1.079-7.078-1.055ZM2.751 159.923l-.104-12.636 29.817-.247c3.545-.03 6.62.793 9.225 2.469 2.59 1.66 4.602 3.992 6.036 6.996 1.419 3.003 2.145 6.497 2.178 10.482.033 4.015-.635 7.536-2.004 10.562-1.384 3.027-3.357 5.392-5.918 7.095-2.577 1.688-5.639 2.547-9.184 2.576l-29.817.248-.105-12.636 28.727-.239c1.439-.012 2.724-.34 3.855-.986a6.892 6.892 0 0 0 2.614-2.658c.627-1.142.935-2.432.923-3.872-.012-1.454-.341-2.739-.987-3.855a6.887 6.887 0 0 0-2.658-2.615c-1.141-.627-2.432-.934-3.871-.922l-28.727.238ZM12.79 142.47l-10.182.084-.335-40.453 10.181-.084.116 13.999 36.363-.301.103 12.454-36.362.301.116 14ZM1.898 57.052l-.105-12.636 29.817-.248c3.546-.029 6.62.794 9.226 2.47 2.59 1.66 4.601 3.992 6.035 6.995 1.42 3.003 2.145 6.498 2.178 10.482.034 4.015-.634 7.536-2.003 10.563-1.384 3.026-3.357 5.391-5.919 7.095-2.577 1.688-5.638 2.546-9.183 2.576l-29.817.247-.105-12.636 28.726-.238c1.44-.012 2.724-.34 3.856-.987a6.887 6.887 0 0 0 2.614-2.658c.627-1.141.934-2.432.922-3.871-.012-1.455-.34-2.74-.986-3.856a6.886 6.886 0 0 0-2.658-2.614c-1.142-.627-2.432-.934-3.872-.923l-28.726.239ZM16.08 13.2c-1.514.133-2.691.711-3.531 1.734-.84 1.007-1.252 2.533-1.235 4.578.011 1.303.179 2.37.504 3.2.31.816.732 1.419 1.265 1.808a3.09 3.09 0 0 0 1.823.599 2.986 2.986 0 0 0 1.52-.308c.438-.246.836-.628 1.196-1.147.344-.518.657-1.18.938-1.985.28-.805.53-1.762.749-2.87l.786-3.825c.524-2.58 1.226-4.79 2.104-6.63.879-1.841 1.92-3.35 3.122-4.527 1.187-1.176 2.528-2.044 4.024-2.601C30.84.652 32.475.35 34.247.32c3.06-.01 5.657.734 7.791 2.231 2.134 1.498 3.765 3.65 4.895 6.46 1.13 2.793 1.71 6.16 1.743 10.1.033 4.045-.536 7.58-1.708 10.605-1.172 3.01-2.993 5.358-5.464 7.045-2.486 1.672-5.676 2.532-9.57 2.58l-.1-12c1.424-.087 2.618-.453 3.582-1.098.965-.644 1.692-1.544 2.183-2.7.49-1.17.728-2.559.715-4.165-.011-1.348-.187-2.476-.528-3.382-.34-.906-.809-1.592-1.404-2.057a3.272 3.272 0 0 0-2.028-.71 2.874 2.874 0 0 0-1.858.72c-.542.444-1.02 1.175-1.436 2.194-.431 1.018-.829 2.393-1.194 4.123l-.961 4.645c-.86 4.128-2.325 7.39-4.396 9.787-2.087 2.38-4.948 3.579-8.584 3.594-2.955.04-5.544-.727-7.77-2.3-2.24-1.587-3.993-3.792-5.26-6.615C1.63 26.54.982 23.28.952 19.598c-.031-3.757.57-7.012 1.805-9.765 1.235-2.753 2.99-4.881 5.266-6.385 2.26-1.519 4.913-2.298 7.958-2.339l.1 12.09Z"/></mask><path d="m50.623 319.611 1-.008-.006-.743-.712-.209-.282.96Zm.114 13.636-.306.952 1.317.423-.011-1.383-1 .008ZM4.065 318.27l-1 .008.006.723.689.221.305-.952Zm-.143-17.272-.321-.947-.685.232.006.723 1-.008Zm46.416-15.749 1-.009-.011-1.383-1.31.445.321.947Zm.114 13.636.296.954.71-.22-.007-.743-1 .009ZM16.81 309.346l-.297-.955-.71.22.007.743 1-.008Zm.003.363-1 .009.006.742.713.209.28-.96Zm15.469 12.6-1 .008.008 1 1-.008-.008-1Zm-.213-25.636-.008-1-1 .009.008 1 1-.009Zm9.454-.078 1-.008-.008-1-1 .008.008 1Zm.213 25.635.008 1 1-.008-.008-1-1 .008Zm7.888-2.611.113 13.636 2-.016-.114-13.636-2 .016Zm1.418 12.676L4.371 317.318l-.611 1.904 46.671 14.977.611-1.904ZM5.065 318.262l-.143-17.272-2 .016.143 17.272 2-.016Zm-.822-16.317 46.417-15.749-.643-1.894-46.416 15.749.642 1.894Zm45.095-16.688.114 13.636 2-.017-.114-13.636-2 .017Zm.816 12.673-33.641 10.461.594 1.91 33.641-10.462-.593-1.909ZM15.81 309.354l.003.364 2-.017-.003-.364-2 .017Zm.722 1.315 33.81 9.902.563-1.92-33.811-9.901-.562 1.919Zm16.75 11.631-.213-25.635-2 .017.213 25.635 2-.017Zm-1.205-24.627 9.454-.078-.016-2-9.454.078.016 2Zm8.446-1.07.213 25.636 2-.017-.213-25.635-2 .016Zm1.204 24.627-9.454.079.017 2 9.454-.079-.017-2Zm8.574-40.464.008 1 1-.009-.008-.999-1 .008Zm-46.544.386-1 .008.009 1 1-.008-.009-1Zm1.19-29.125.933.361.001-.002-.933-.359Zm4-5.51.583.813.005-.004-.588-.809Zm10.835-.817-.466.884.007.004.459-.888Zm3.571 3.106.816-.578-.004-.006-.812.584Zm1.994 4.711-.979.206.169.801.818-.007-.008-1Zm.454-.003.009 1 .963-.008.028-.963-1-.029Zm1.478-5.467.871.49.004-.006-.875-.484Zm3.808-3.941.517.856.004-.002-.52-.854Zm12.527.441-.55.835.004.003.546-.838Zm4.729 5.598-.903.429.903-.429Zm-8.237 18.069.008 1 1-.009-.008-1-1 .009Zm-1.27-10.672.797-.603-.005-.007-.793.61Zm-8.035 1.362.92.39.003-.005-.923-.385Zm-.513 9.391-1 .008.008 1 1-.008-.008-1Zm-7.818.065.008 1 1-.008-.008-1-1 .008Zm-.59-8.109.922-.388-.922.388Zm-1.516-1.965-.582.814.004.002.578-.816Zm-5.72.866.804.593.006-.008-.81-.585Zm-1.083 9.282-1 .008.008 1 1-.008-.008-1Zm36.732 11.332-46.544.386.017 2 46.543-.386-.016-2Zm-45.536 1.378-.167-20.181-2 .016.167 20.181 2-.016Zm-.167-20.181c-.029-3.463.415-6.31 1.29-8.575l-1.865-.721c-.994 2.569-1.455 5.684-1.425 9.312l2-.016Zm1.291-8.577c.88-2.29 2.108-3.952 3.649-5.056l-1.165-1.626c-1.923 1.379-3.362 3.391-4.351 5.965l1.867.717Zm3.654-5.06c1.546-1.122 3.386-1.706 5.564-1.724l-.017-2c-2.548.021-4.804.714-6.722 2.105l1.175 1.619Zm5.564-1.724c1.559-.013 2.958.319 4.217.982l.932-1.769c-1.572-.828-3.3-1.228-5.166-1.213l.017 2Zm4.224.986c1.27.656 2.342 1.585 3.219 2.803l1.623-1.169c-1.055-1.463-2.364-2.605-3.924-3.411l-.918 1.777Zm3.215 2.797c.862 1.216 1.477 2.656 1.83 4.338l1.958-.411c-.404-1.918-1.118-3.619-2.157-5.084l-1.631 1.157Zm2.817 5.132.455-.003-.017-2-.454.003.016 2Zm1.446-.974c.055-1.849.508-3.511 1.35-5.006l-1.744-.981c-1.01 1.794-1.541 3.776-1.605 5.928l1.999.059Zm1.353-5.012a9.448 9.448 0 0 1 3.45-3.569l-1.034-1.712a11.443 11.443 0 0 0-4.166 4.312l1.75.969Zm3.454-3.571c1.435-.875 3.157-1.339 5.202-1.356l-.016-2c-2.348.019-4.436.556-6.227 1.648l1.04 1.708Zm5.202-1.356c2.36-.02 4.434.578 6.253 1.778l1.102-1.669c-2.173-1.434-4.64-2.132-7.371-2.109l.017 2Zm6.258 1.781c1.822 1.188 3.284 2.904 4.372 5.189l1.805-.859c-1.225-2.574-2.915-4.591-5.085-6.005l-1.092 1.675Zm4.372 5.189c1.08 2.269 1.652 5.023 1.68 8.292l2-.017c-.03-3.488-.641-6.543-1.875-9.134l-1.805.859Zm1.68 8.292.181 21.908 2-.016-.182-21.909-2 .017Zm-8.014 9.339-.05-5.909-2 .017.05 5.909 2-.017Zm-.05-5.909c-.018-2.215-.44-4.056-1.423-5.357l-1.595 1.206c.61.807 1.002 2.142 1.019 4.168l2-.017Zm-1.428-5.364c-1.038-1.347-2.547-1.966-4.36-1.951l.017 1.999c1.309-.01 2.172.411 2.758 1.172l1.585-1.22Zm-4.36-1.951c-1.246.01-2.369.307-3.315.942l1.115 1.661c.56-.377 1.282-.596 2.217-.604l-.016-1.999Zm-3.315.942c-.934.628-1.622 1.508-2.075 2.597l1.846.769c.32-.767.77-1.32 1.344-1.705l-1.115-1.661Zm-2.073 2.591c-.453 1.07-.654 2.313-.643 3.699l2-.017c-.01-1.19.165-2.147.485-2.902l-1.842-.78Zm-.643 3.699.05 6.09 2-.016-.05-6.091-2 .017Zm1.06 7.082 9.817-.081-.017-2-9.817.081.016 2Zm-6.827-.943-.043-5.182-2 .017.043 5.181 2-.016Zm-.043-5.182c-.01-1.21-.21-2.319-.625-3.307l-1.844.775c.296.704.46 1.547.469 2.549l2-.017Zm-.625-3.307c-.418-.992-1.032-1.806-1.86-2.393l-1.156 1.632c.482.342.878.838 1.172 1.536l1.844-.775Zm-1.857-2.39c-.869-.621-1.896-.903-3.027-.894l.016 2c.778-.006 1.376.183 1.848.521l1.163-1.627Zm-3.027-.894c-1.712.014-3.124.658-4.085 1.987l1.62 1.171c.538-.743 1.314-1.148 2.481-1.158l-.017-2Zm-4.08 1.979c-.919 1.247-1.336 2.778-1.321 4.521l2-.017c-.012-1.409.322-2.49.931-3.317l-1.61-1.187Zm-1.321 4.521.044 5.363 2-.016-.044-5.364-2 .017Zm1.053 6.355 8.908-.074-.016-2-8.91.074.018 2Zm25.869-73.399.487-.874-.002-.001-.485.875Zm8.135 8.092.88-.477-.002-.003-.878.48Zm.168 22.954.883.469.002-.005-.885-.464Zm-8.023 8.203.497.868.004-.003-.501-.865Zm-26.158.217-.486.874.002.001.484-.875Zm-8.136-8.069.879-.478-.001-.002-.878.48Zm-.19-22.954.885.465.002-.003-.887-.462Zm8-8.226.5.866.001-.001-.5-.865Zm6.137 11.041.362.932.008-.003-.37-.929Zm-4.336 3.286.823.568.007-.01-.83-.558Zm.088 10.568.817-.576-.001-.002-.816.578Zm4.39 3.213-.352.936.004.002.348-.938Zm14.113-.117.361.933.01-.004-.37-.929Zm4.337-3.286.823.568.007-.01-.83-.558Zm-.088-10.568.818-.575-.002-.002-.816.577Zm-4.39-3.213-.353.935.004.002.349-.937Zm-7.177-13.055c5.054-.042 9.253.906 12.644 2.788l.971-1.749c-3.763-2.088-8.323-3.083-13.632-3.039l.017 2Zm12.643 2.787c3.406 1.899 5.978 4.463 7.745 7.698l1.755-.959c-1.957-3.583-4.808-6.413-8.526-8.486l-.974 1.747Zm7.743 7.695c1.762 3.253 2.668 6.901 2.702 10.964l2-.017c-.037-4.361-1.012-8.335-2.943-11.9l-1.759.953Zm2.702 10.964c.034 4.093-.819 7.769-2.54 11.049l1.77.929c1.889-3.598 2.806-7.604 2.77-11.995l-2 .017Zm-2.538 11.044c-1.728 3.251-4.266 5.852-7.641 7.808l1.002 1.73c3.682-2.133 6.493-5.001 8.405-8.599l-1.766-.939Zm-7.637 7.805c-3.361 1.925-7.53 2.935-12.554 2.976l.016 2c5.28-.044 9.805-1.106 13.532-3.24l-.994-1.736Zm-12.554 2.976c-5.056.042-9.248-.899-12.623-2.766l-.968 1.75c3.748 2.074 8.3 3.06 13.607 3.016l-.016-2Zm-12.622-2.765c-3.421-1.9-5.992-4.456-7.742-7.673l-1.757.956c1.942 3.57 4.795 6.393 8.528 8.465l.971-1.748Zm-7.743-7.675c-1.776-3.251-2.69-6.912-2.723-11.005l-2 .016c.036 4.392 1.02 8.382 2.968 11.948l1.755-.959ZM3.58 215.947c-.034-4.062.818-7.723 2.54-11.004l-1.77-.93c-1.888 3.598-2.806 7.588-2.77 11.95l2-.016Zm2.542-11.007c1.697-3.261 4.225-5.867 7.613-7.822l-1-1.732c-3.699 2.134-6.505 5.013-8.387 8.63l1.774.924Zm7.614-7.823c3.344-1.937 7.518-2.954 12.573-2.996l-.017-2c-5.309.044-9.844 1.114-13.558 3.266l1.002 1.73Zm12.664 8.004c-2.87.023-5.346.425-7.398 1.243l.74 1.858c1.755-.699 3.969-1.079 6.675-1.101l-.017-2Zm-7.389 1.239c-2.074.804-3.699 2.015-4.805 3.661l1.66 1.116c.84-1.249 2.105-2.229 3.868-2.912l-.723-1.865Zm-4.798 3.651c-1.127 1.633-1.652 3.607-1.633 5.861l2-.017c-.016-1.927.43-3.477 1.279-4.708l-1.646-1.136Zm-1.633 5.861c.018 2.255.576 4.224 1.727 5.852l1.633-1.155c-.873-1.234-1.344-2.787-1.36-4.714l-2 .017Zm1.726 5.85c1.133 1.61 2.774 2.791 4.856 3.574l.704-1.872c-1.779-.669-3.064-1.63-3.925-2.853l-1.635 1.151Zm4.86 3.576c2.062.766 4.543 1.118 7.41 1.095l-.016-2c-2.708.022-4.93-.314-6.698-.97l-.696 1.875Zm7.41 1.095c2.869-.024 5.35-.418 7.412-1.217l-.722-1.865c-1.773.687-3.999 1.059-6.706 1.082l.017 2Zm7.421-1.221c2.053-.818 3.67-2.025 4.79-3.647l-1.646-1.136c-.858 1.243-2.131 2.227-3.884 2.925l.74 1.858Zm4.797-3.657c1.106-1.646 1.622-3.622 1.603-5.874l-2 .017c.016 1.93-.424 3.492-1.263 4.741l1.66 1.116Zm1.603-5.874c-.019-2.251-.567-4.213-1.703-5.827l-1.636 1.151c.857 1.218 1.323 2.762 1.339 4.693l2-.017Zm-1.705-5.829c-1.146-1.622-2.786-2.804-4.858-3.574l-.697 1.875c1.759.653 3.045 1.613 3.922 2.854l1.633-1.155Zm-4.854-3.572c-2.079-.782-4.568-1.143-7.438-1.119l.017 2c2.705-.023 4.934.32 6.716.99l.705-1.871ZM2.75 159.923l-1 .008.009 1 1-.008-.008-1Zm-.104-12.636-.009-1-1 .009.009 1 1-.009Zm39.042 2.222-.54.841v.001l.54-.842Zm6.036 6.996.904-.428-.002-.003-.902.431Zm.174 21.044.91.416.001-.004-.91-.412Zm-5.918 7.095.548.837.005-.004-.553-.833ZM2.98 187.468l-1 .008.008 1 1-.008-.008-1Zm-.105-12.636-.008-1-1 .008.008 1 1-.008Zm32.582-1.225.496.868.005-.003-.5-.865Zm2.614-2.658.874.486.003-.005-.877-.481Zm-.064-7.727.866-.501-.866.501Zm-2.658-2.615.487-.873-.005-.003-.482.876Zm-31.598-.692-.104-12.636-2 .017.105 12.635 2-.016Zm-1.096-11.628 29.817-.247-.017-2-29.817.247.017 2Zm29.817-.247c3.38-.028 6.258.754 8.676 2.31l1.082-1.682c-2.791-1.796-6.063-2.659-9.774-2.628l.016 2Zm8.677 2.311c2.42 1.551 4.313 3.735 5.673 6.584l1.805-.861c-1.507-3.158-3.639-5.638-6.398-7.407l-1.08 1.684Zm5.672 6.581c1.345 2.849 2.05 6.195 2.082 10.063l2-.016c-.034-4.102-.782-7.744-2.274-10.902l-1.808.855Zm2.082 10.063c.032 3.9-.617 7.272-1.915 10.142l1.822.824c1.44-3.183 2.127-6.852 2.093-10.982l-2 .016Zm-1.913 10.138c-1.313 2.872-3.17 5.087-5.563 6.678l1.107 1.666c2.73-1.815 4.82-4.33 6.275-7.512l-1.82-.832Zm-5.557 6.675c-2.394 1.567-5.261 2.384-8.644 2.412l.017 2c3.707-.03 6.962-.931 9.723-2.739l-1.096-1.673Zm-8.644 2.412-29.817.248.016 2 29.818-.248-.017-2ZM3.98 187.459l-.105-12.636-2 .017.105 12.636 2-.017Zm-1.097-11.627 28.727-.239-.017-2-28.726.239.016 2Zm28.727-.239c1.592-.013 3.048-.378 4.343-1.118l-.992-1.737c-.967.553-2.081.845-3.368.855l.017 2Zm4.348-1.121a7.886 7.886 0 0 0 2.987-3.037l-1.747-.973a5.883 5.883 0 0 1-2.242 2.279l1.002 1.731Zm2.99-3.042c.718-1.307 1.06-2.769 1.046-4.361l-2 .017c.01 1.286-.263 2.405-.8 3.381l1.754.963Zm1.046-4.361c-.013-1.605-.378-3.064-1.121-4.348l-1.731 1.002c.548.947.841 2.059.852 3.363l2-.017Zm-1.121-4.348a7.88 7.88 0 0 0-3.037-2.987l-.973 1.747a5.883 5.883 0 0 1 2.279 2.242l1.73-1.002Zm-3.042-2.99c-1.307-.718-2.77-1.059-4.362-1.046l.017 2c1.287-.011 2.406.263 3.382.799l.963-1.753Zm-4.362-1.046-28.726.238.017 2 28.726-.238-.017-2ZM12.79 142.47l.008 1 1-.008-.008-1-1 .008Zm-10.182.084-1 .009.009 1 1-.009-.009-1Zm-.335-40.453-.009-1-1 .009.009 1 1-.009Zm10.181-.084 1-.008-.008-1-1 .008.008 1Zm.116 13.999-1 .009.009 1 1-.009-.009-1Zm36.363-.301 1-.009-.009-1-1 .009.009 1Zm.103 12.454.008 1 1-.009-.008-1-1 .009Zm-36.362.301-.009-.999-1 .008.009 1 1-.009Zm.108 13-10.182.084.017 2 10.181-.084-.016-2Zm-9.174 1.076-.335-40.453-2 .017.335 40.453 2-.017ZM2.28 103.101l10.181-.084-.016-2-10.182.084.017 2Zm9.173-1.076.116 14 2-.017-.116-13.999-2 .016Zm1.125 14.991 36.362-.301-.017-2-36.362.301.017 2Zm35.354-1.293.103 12.454 2-.017-.103-12.454-2 .017Zm1.095 11.446-36.363.302.017 1.999 36.362-.301-.016-2Zm-37.354 1.31.116 13.999 2-.016-.116-14-2 .017ZM1.898 57.052l-1 .008.008 1 1-.008-.008-1Zm-.105-12.636-.008-1-1 .008.008 1 1-.008Zm39.043 2.221-.541.841v.001l.54-.842Zm6.035 6.996.904-.427-.001-.004-.903.431Zm.175 21.045.91.416.001-.004-.911-.412Zm-5.919 7.095.548.836.006-.004-.554-.832Zm-39 2.823-1 .008.008 1 1-.008-.008-1ZM2.022 71.96l-.009-1-1 .009.009 1 1-.009Zm32.582-1.225.495.869.005-.003-.5-.866Zm2.614-2.658.874.487.002-.005-.876-.482Zm-.064-7.727.865-.5-.865.5Zm-2.658-2.614.486-.874-.005-.003-.481.877Zm-31.598-.693-.105-12.636-2 .017.105 12.636 2-.017ZM1.801 45.416l29.818-.248-.017-2-29.817.248.016 2Zm29.818-.248c3.38-.028 6.257.755 8.676 2.31l1.082-1.682c-2.792-1.795-6.064-2.658-9.775-2.628l.017 2Zm8.677 2.311c2.42 1.552 4.312 3.735 5.673 6.585l1.805-.862c-1.508-3.157-3.64-5.637-6.399-7.406l-1.08 1.683Zm5.671 6.581c1.346 2.85 2.05 6.195 2.082 10.064l2-.017c-.034-4.101-.782-7.743-2.274-10.901l-1.808.854Zm2.082 10.064c.033 3.9-.616 7.272-1.914 10.142l1.822.824c1.44-3.183 2.126-6.853 2.092-10.983l-2 .017Zm-1.913 10.138c-1.313 2.872-3.169 5.086-5.562 6.678l1.107 1.665c2.73-1.814 4.82-4.33 6.274-7.511l-1.819-.832Zm-5.557 6.674c-2.393 1.568-5.26 2.385-8.644 2.413l.017 2c3.707-.03 6.963-.931 9.723-2.74l-1.096-1.673Zm-8.644 2.413-29.817.247.017 2 29.817-.247-.017-2ZM3.127 84.588l-.105-12.636-2 .017.105 12.636 2-.017ZM2.03 72.96l28.726-.238-.016-2-28.727.238.017 2Zm28.726-.238c1.592-.013 3.049-.379 4.343-1.118l-.991-1.737c-.967.552-2.082.844-3.368.855l.016 2Zm4.348-1.121a7.886 7.886 0 0 0 2.988-3.037l-1.748-.973a5.886 5.886 0 0 1-2.241 2.279l1.001 1.731Zm2.99-3.042c.718-1.307 1.06-2.77 1.046-4.361l-2 .016c.011 1.287-.262 2.406-.798 3.382l1.752.963Zm1.046-4.361c-.013-1.605-.378-3.064-1.12-4.348l-1.732 1.001c.549.948.842 2.06.853 3.363l2-.016Zm-1.12-4.348a7.886 7.886 0 0 0-3.038-2.988l-.973 1.748a5.886 5.886 0 0 1 2.28 2.241l1.73-1.002Zm-3.043-2.99c-1.307-.718-2.769-1.06-4.361-1.047l.017 2c1.286-.01 2.405.263 3.381.8l.963-1.754Zm-4.361-1.047-28.726.239.016 2 28.727-.239-.017-2ZM16.08 13.2l.088.996.92-.082-.008-.923-1 .009Zm-3.531 1.734.768.64.005-.006-.773-.634Zm-.731 7.779.935-.355-.004-.01-.931.365Zm1.265 1.807-.59.808.59-.808Zm1.823.599.046-1h-.032l-.014 1Zm1.52-.308.455.89.018-.009.018-.01-.49-.871Zm1.196-1.147.821.57.006-.008.005-.008-.832-.554Zm1.687-4.855-.98-.201-.002.008.982.193Zm.786-3.825.98.202v-.002l-.98-.2Zm2.104-6.63.903.43-.903-.43Zm3.122-4.527.7.715.004-.005-.704-.71Zm4.024-2.602.35.937.008-.003-.358-.934Zm4.902-.904-.004-1h-.013l.017 1Zm7.791 2.231.575-.818-.575.818Zm4.895 6.46-.928.373v.001l.928-.374Zm.035 20.705.932.363v-.002l-.932-.361Zm-5.464 7.045.558.83.006-.004-.564-.826Zm-9.57 2.58-1 .008.008 1.004 1.004-.012-.012-1Zm-.1-12-.061-.998-.946.058.007.948 1-.008Zm3.582-1.098.556.832-.556-.832Zm2.183-2.7.92.39.002-.004-.922-.386Zm.187-7.547.936-.352-.936.352Zm-1.404-2.057.616-.788-.615.788Zm-2.028-.71.011-1h-.04l.029 1Zm-1.858.72.634.773.012-.01.011-.01-.657-.753Zm-1.436 2.194.92.39.005-.012-.925-.378Zm-1.194 4.123-.978-.206v.004l.978.202Zm-.961 4.645.979.204v-.002l-.979-.202Zm-4.396 9.787.752.659.004-.005-.756-.654Zm-8.584 3.594-.004-1h-.01l.014 1Zm-7.77-2.3-.578.816.001.001.577-.817Zm-5.26-6.615-.913.407.001.002.913-.41ZM2.757 9.833l.913.409-.913-.41Zm5.266-6.385.551.834.006-.004-.557-.83Zm7.958-2.339 1-.008L16.97.096l-1.004.013.013 1Zm.012 11.095c-1.738.153-3.18.834-4.216 2.095l1.546 1.27c.643-.784 1.556-1.26 2.846-1.373l-.176-1.992Zm-4.21 2.089c-1.058 1.267-1.486 3.071-1.468 5.227l2-.016c-.016-1.935.38-3.183 1.003-3.93l-1.536-1.281Zm-1.468 5.227c.012 1.374.188 2.573.573 3.557l1.862-.729c-.265-.677-.425-1.612-.435-2.844l-2 .016Zm.57 3.548c.356.94.877 1.725 1.61 2.26l1.179-1.615c-.335-.244-.658-.664-.92-1.355l-1.87.71Zm1.61 2.26a4.089 4.089 0 0 0 2.398.79l.028-2a2.09 2.09 0 0 1-1.247-.405l-1.18 1.615Zm2.367.79a3.985 3.985 0 0 0 2.02-.417l-.91-1.78a1.989 1.989 0 0 1-1.019.199l-.091 1.998Zm2.056-.436c.598-.336 1.102-.836 1.526-1.448l-1.643-1.14c-.295.425-.588.69-.864.845l.98 1.743Zm1.537-1.464c.404-.608.75-1.352 1.05-2.209l-1.888-.66c-.264.754-.543 1.334-.827 1.762l1.665 1.107Zm1.05-2.209c.3-.862.561-1.866.786-3.006l-1.962-.387c-.212 1.076-.45 1.984-.712 2.734l1.888.659Zm.784-2.998.787-3.825-1.96-.403-.786 3.825 1.96.403Zm.787-3.827c.512-2.522 1.192-4.65 2.027-6.4l-1.805-.862c-.923 1.933-1.646 4.225-2.182 6.864l1.96.398Zm2.027-6.4c.838-1.757 1.815-3.163 2.918-4.242l-1.398-1.43c-1.302 1.274-2.406 2.886-3.325 4.81l1.805.862Zm2.923-4.247c1.091-1.081 2.313-1.869 3.67-2.375l-.7-1.873c-1.634.61-3.095 1.556-4.378 2.828l1.408 1.42Zm3.678-2.378c1.375-.527 2.892-.81 4.56-.838l-.033-2c-1.877.032-3.628.352-5.243.97l.716 1.868Zm4.547-.838c2.89-.01 5.277.69 7.214 2.05l1.149-1.637C40.282.098 37.473-.69 34.243-.68l.007 2Zm7.214 2.05c1.95 1.369 3.472 3.355 4.541 6.014l1.856-.746c-1.19-2.96-2.932-5.28-5.248-6.905l-1.15 1.637Zm4.542 6.015c1.07 2.648 1.638 5.883 1.67 9.733l2-.016c-.034-4.028-.628-7.526-1.816-10.466l-1.854.75Zm1.67 9.733c.033 3.95-.524 7.354-1.64 10.236l1.865.723c1.227-3.168 1.81-6.834 1.775-10.975l-2 .016Zm-1.64 10.235c-1.105 2.837-2.805 5.018-5.096 6.582l1.128 1.652c2.65-1.81 4.593-4.327 5.832-7.509l-1.864-.725Zm-5.09 6.578c-2.283 1.536-5.268 2.364-9.024 2.41l.024 2c4.03-.05 7.426-.941 10.116-2.75l-1.116-1.66Zm-8.012 3.401-.1-12-2 .017.1 12 2-.017ZM31.896 28.34c1.56-.096 2.934-.501 4.076-1.264l-1.111-1.663c-.787.526-1.8.852-3.088.931l.123 1.996Zm4.076-1.264c1.14-.762 1.987-1.822 2.547-3.141l-1.841-.781c-.42.991-1.028 1.732-1.817 2.259l1.11 1.663Zm2.549-3.146c.554-1.324.807-2.852.793-4.56l-2 .017c.013 1.505-.212 2.753-.638 3.77l1.845.773Zm.793-4.56c-.012-1.422-.197-2.675-.592-3.725l-1.872.704c.287.762.453 1.765.464 3.038l2-.016Zm-.592-3.725c-.388-1.03-.949-1.887-1.724-2.493l-1.231 1.576c.414.324.789.839 1.083 1.62l1.872-.703Zm-1.724-2.493a4.272 4.272 0 0 0-2.633-.922l-.023 2c.54.006 1.003.169 1.425.498l1.231-1.576Zm-2.674-.922a3.872 3.872 0 0 0-2.485.966l1.314 1.508c.349-.304.745-.46 1.23-.475l-.059-1.999Zm-2.462.946c-.723.593-1.282 1.496-1.728 2.59l1.851.755c.386-.944.785-1.503 1.145-1.798l-1.268-1.547Zm-1.723 2.578c-.467 1.102-.88 2.546-1.251 4.307l1.957.412c.358-1.7.74-3.005 1.136-3.94l-1.842-.779Zm-1.252 4.31-.961 4.645 1.958.405.962-4.644-1.959-.405Zm-.961 4.644c-.836 4.015-2.245 7.105-4.174 9.337l1.513 1.308c2.213-2.56 3.736-5.996 4.619-10.237l-1.958-.408Zm-4.17 9.332c-1.868 2.132-4.439 3.239-7.835 3.253l.008 2c3.876-.016 7.028-1.306 9.332-3.935l-1.504-1.318Zm-7.845 3.253c-2.762.037-5.14-.676-7.179-2.116L7.578 36.81c2.413 1.705 5.213 2.525 8.36 2.483l-.027-2Zm-7.178-2.115c-2.076-1.472-3.723-3.528-4.925-6.21l-1.825.819c1.33 2.965 3.19 5.319 5.594 7.022l1.156-1.631ZM3.81 28.97c-1.2-2.691-1.829-5.811-1.858-9.38l-2 .016c.031 3.795.7 7.194 2.031 10.18l1.827-.816Zm-1.858-9.38c-.03-3.648.554-6.755 1.718-9.348l-1.825-.819C.538 12.336-.081 15.74-.05 19.606l2-.016Zm1.718-9.348c1.165-2.599 2.803-4.572 4.904-5.96L7.47 2.614c-2.45 1.619-4.322 3.903-5.626 6.81l1.825.818Zm4.91-5.964c2.08-1.398 4.54-2.13 7.414-2.169l-.026-2C12.75.152 9.904.98 7.464 2.618l1.115 1.66Zm6.4-3.16.101 12.09 2-.017-.1-12.09-2 .016Z" fill="#05C2DF" fill-opacity=".5" mask="url('#path-1-outside-1_1_10677')"/></svg>