<svg width="51" height="335" fill="none" xmlns="http://www.w3.org/2000/svg"><mask id="path-1-outside-1_1_398" maskUnits="userSpaceOnUse" x="-1.014" y="-.867" width="53.786" height="336.412" fill="#000"><path fill="#fff" d="M-1.014-.867h53.786v336.412H-1.014z"/><path d="M1.11 14.63.999.994 47.669 15.97l.143 17.272-46.416 15.75-.113-13.637 33.641-10.461-.003-.364-33.81-9.901Zm18.343-2.698.212 25.635-9.454.079-.213-25.636 9.455-.078ZM1.433 53.475l46.544-.386.167 20.18c.03 3.546-.423 6.527-1.357 8.944-.935 2.432-2.268 4.27-4 5.51-1.732 1.258-3.78 1.896-6.144 1.916-1.712.014-3.275-.352-4.69-1.098-1.416-.73-2.606-1.766-3.572-3.107-.95-1.34-1.615-2.91-1.994-4.71l-.454.003c-.06 2-.552 3.823-1.478 5.467a10.448 10.448 0 0 1-3.808 3.94c-1.613.984-3.518 1.485-5.715 1.503-2.545.021-4.816-.627-6.812-1.944-1.996-1.301-3.572-3.167-4.728-5.597-1.157-2.43-1.75-5.334-1.777-8.713l-.182-21.908ZM11.63 66.027l.049 5.909c.017 2.121.424 3.709 1.22 4.763.813 1.054 1.999 1.574 3.56 1.561 1.09-.009 2.013-.267 2.766-.773.753-.506 1.323-1.223 1.71-2.15.386-.913.574-2.013.563-3.3l-.05-6.091-9.818.081Zm17.635-.146.043 5.181c.01 1.106.192 2.082.547 2.928.356.845.861 1.5 1.517 1.965.67.479 1.483.715 2.437.707 1.44-.012 2.534-.537 3.283-1.573.764-1.037 1.14-2.343 1.127-3.919l-.045-5.363-8.909.074Zm-3.83 75.239c-5.182.043-9.561-.929-13.139-2.914-3.562-1.986-6.273-4.683-8.135-8.092-1.847-3.409-2.787-7.22-2.822-11.432-.035-4.242.85-8.083 2.654-11.522 1.82-3.424 4.495-6.159 8.023-8.203 3.544-2.03 7.892-3.066 13.043-3.108 5.182-.043 9.554.92 13.116 2.89 3.577 1.986 6.289 4.676 8.135 8.07 1.862 3.409 2.81 7.234 2.845 11.477.035 4.212-.85 8.037-2.655 11.477-1.79 3.439-4.456 6.181-8 8.225-3.528 2.045-7.884 3.089-13.065 3.132Zm-.108-13c2.788-.023 5.133-.414 7.036-1.172 1.918-.743 3.364-1.838 4.336-3.286.989-1.432 1.474-3.194 1.457-5.285-.018-2.091-.532-3.852-1.544-5.283-.997-1.416-2.46-2.487-4.39-3.213-1.916-.712-4.267-1.056-7.055-1.033-2.788.023-5.14.406-7.059 1.15-1.903.758-3.348 1.853-4.336 3.286-.973 1.447-1.451 3.216-1.434 5.307.018 2.091.525 3.844 1.521 5.261 1.012 1.431 2.476 2.502 4.39 3.213 1.931.727 4.29 1.078 7.078 1.055Zm23.657 46.198.105 12.635-29.818.248c-3.545.029-6.62-.794-9.225-2.469-2.59-1.661-4.601-3.992-6.035-6.996-1.42-3.003-2.145-6.497-2.178-10.482-.034-4.015.634-7.536 2.003-10.563 1.384-3.026 3.357-5.391 5.919-7.094 2.577-1.688 5.638-2.547 9.183-2.577l29.817-.247.105 12.636-28.726.238c-1.44.012-2.725.341-3.856.987a6.891 6.891 0 0 0-2.614 2.658c-.627 1.142-.935 2.432-.923 3.871.012 1.455.341 2.74.987 3.856a6.884 6.884 0 0 0 2.658 2.614c1.142.627 2.432.935 3.871.923l28.727-.238Zm-10.038 17.453 10.182-.085.335 40.453-10.181.085-.116-14-36.363.302-.103-12.454 36.363-.302-.117-13.999Zm10.891 85.418.105 12.636-29.817.247c-3.545.03-6.62-.793-9.225-2.469-2.59-1.66-4.602-3.992-6.036-6.995-1.419-3.004-2.145-6.498-2.178-10.483-.033-4.015.635-7.535 2.003-10.562 1.384-3.027 3.357-5.392 5.92-7.095 2.576-1.688 5.637-2.547 9.183-2.576l29.817-.248.105 12.636-28.727.239c-1.44.012-2.724.341-3.855.986a6.891 6.891 0 0 0-2.615 2.658c-.627 1.142-.934 2.433-.922 3.872.012 1.454.34 2.74.986 3.855a6.887 6.887 0 0 0 2.658 2.615c1.142.627 2.433.934 3.872.922l28.726-.238Zm-14.182 43.852c1.514-.134 2.691-.712 3.531-1.734.84-1.007 1.252-2.533 1.235-4.578-.01-1.303-.179-2.37-.504-3.201-.31-.815-.731-1.418-1.265-1.808a3.089 3.089 0 0 0-1.823-.598 2.983 2.983 0 0 0-1.52.308c-.438.246-.836.628-1.195 1.146-.344.518-.657 1.18-.938 1.985-.282.806-.531 1.762-.75 2.87l-.786 3.825c-.524 2.58-1.225 4.791-2.104 6.632-.879 1.84-1.92 3.349-3.122 4.526-1.187 1.176-2.528 2.043-4.024 2.601-1.495.573-3.129.875-4.901.905-3.061.01-5.658-.734-7.792-2.231-2.134-1.498-3.765-3.651-4.895-6.46-1.129-2.794-1.71-6.16-1.743-10.099-.033-4.046.536-7.581 1.708-10.606 1.172-3.01 2.994-5.358 5.464-7.045 2.487-1.673 5.677-2.533 9.57-2.58l.1 12c-1.424.087-2.618.453-3.582 1.098-.964.644-1.692 1.544-2.182 2.7-.49 1.17-.73 2.559-.716 4.165.011 1.348.188 2.476.528 3.382.341.906.809 1.592 1.404 2.056a3.272 3.272 0 0 0 2.029.711 2.872 2.872 0 0 0 1.857-.72c.542-.444 1.02-1.175 1.437-2.194.43-1.019.828-2.393 1.193-4.124l.961-4.644c.86-4.129 2.325-7.391 4.396-9.787 2.087-2.381 4.948-3.579 8.585-3.594 2.954-.04 5.544.727 7.769 2.299 2.24 1.588 3.994 3.793 5.26 6.616 1.266 2.838 1.914 6.098 1.944 9.78.032 3.757-.57 7.012-1.805 9.765-1.235 2.753-2.99 4.881-5.265 6.385-2.26 1.519-4.913 2.298-7.959 2.339l-.1-12.091Z"/></mask><path d="m1.11 14.63-1 .008.007.743.713.208.28-.96ZM.999.994l.305-.952-1.317-.423.012 1.383 1-.008ZM47.669 15.97l1-.009-.006-.723-.688-.22-.306.952Zm.143 17.272.322.947.684-.232-.006-.724-1 .009ZM1.396 48.993l-1 .007.011 1.383 1.31-.444-.321-.947Zm-.113-13.637-.297-.955-.71.22.007.743 1-.008Zm33.641-10.461.297.955.71-.22-.007-.743-1 .008Zm-.003-.364 1-.008-.006-.743-.712-.208-.282.96Zm-15.468-12.6 1-.007-.009-1-1 .008.009 1Zm.212 25.636.009 1 1-.008-.009-1-1 .008Zm-9.454.079-1 .008.009 1 1-.008-.009-1ZM9.998 12.01l-.008-1-1 .009.009 1 1-.009Zm-7.887 2.611L1.998.985l-2 .017.113 13.636 2-.017ZM.692 1.946l46.672 14.977.61-1.904L1.305.041.691 1.946ZM46.67 15.979l.143 17.272 2-.017-.143-17.272-2 .017Zm.822 16.317L1.075 48.046l.642 1.893 46.417-15.75-.643-1.893ZM2.396 48.984l-.113-13.636-2 .017L.396 49l2-.016ZM1.58 36.31 35.22 25.85l-.593-1.91L.985 34.401l.594 1.91Zm34.344-11.424-.003-.364-2 .017.004.363 2-.016Zm-.721-1.315L1.392 13.67.83 15.59l33.81 9.901.563-1.92ZM18.453 11.94l.212 25.636 2-.017-.212-25.635-2 .016Zm1.204 24.628-9.454.078.017 2 9.454-.079-.017-2Zm-8.446 1.07-.213-25.636-2 .017.213 25.635 2-.016ZM10.007 13.01l9.454-.078-.017-2-9.454.078.017 2ZM1.433 53.475l-.008-1-1 .008.008 1 1-.008Zm46.544-.386 1-.008-.008-1-1 .008.008 1Zm-1.19 29.124-.933-.36v.002l.933.358Zm-4 5.51-.583-.812-.004.004.587.809Zm-10.835.818.467-.885-.008-.003-.459.888Zm-3.571-3.107-.816.579.005.006.811-.585Zm-1.994-4.71.979-.207-.169-.8-.818.006.008 1Zm-.454.003-.009-1-.962.008-.029.963 1 .03Zm-1.478 5.467-.871-.49-.003.006.874.484Zm-3.808 3.94-.517-.855-.003.002.52.854Zm-12.527-.44.55-.835-.004-.003-.546.837Zm-4.728-5.598.903-.43-.903.43Zm8.237-18.069-.009-1-1 .008.009 1 1-.008Zm1.27 10.672-.798.603.006.007.792-.61Zm8.034-1.362-.92-.39-.003.005.923.385Zm.513-9.391 1-.009-.008-1-1 .009.008 1Zm7.818-.065-.008-1-1 .008.008 1 1-.008Zm.59 8.109-.921.387.921-.387Zm1.517 1.965.581-.814-.003-.002-.578.816Zm5.72-.866-.805-.593-.006.007.81.586Zm1.082-9.282 1-.008-.008-1-1 .008.008 1ZM1.441 54.475l46.544-.386-.016-2-46.544.386.016 2Zm45.536-1.378.167 20.181 2-.016-.167-20.181-2 .016Zm.167 20.181c.03 3.463-.414 6.31-1.29 8.575l1.865.72c.994-2.568 1.456-5.683 1.425-9.311l-2 .016Zm-1.29 8.577c-.88 2.29-2.109 3.951-3.65 5.056l1.166 1.626c1.923-1.379 3.361-3.392 4.35-5.965l-1.867-.717Zm-3.654 5.06c-1.547 1.121-3.387 1.706-5.565 1.724l.017 2c2.549-.022 4.804-.714 6.722-2.106L42.2 86.915Zm-5.565 1.724c-1.559.013-2.957-.32-4.216-.983l-.933 1.77c1.572.828 3.3 1.228 5.166 1.212l-.017-2Zm-4.224-.986c-1.27-.656-2.341-1.586-3.219-2.803l-1.622 1.169c1.054 1.463 2.363 2.605 3.924 3.41l.917-1.776Zm-3.214-2.797c-.863-1.216-1.477-2.656-1.831-4.338l-1.957.411c.403 1.918 1.117 3.619 2.156 5.084l1.632-1.157Zm-2.818-5.133-.455.004.017 2 .455-.004-.017-2Zm-1.446.975c-.055 1.848-.508 3.511-1.349 5.006l1.743.98c1.01-1.793 1.542-3.775 1.605-5.927l-1.999-.06Zm-1.352 5.012a9.45 9.45 0 0 1-3.45 3.569l1.033 1.712a11.448 11.448 0 0 0 4.166-4.312l-1.75-.97Zm-3.454 3.571c-1.435.875-3.157 1.339-5.203 1.356l.016 2c2.348-.02 4.436-.556 6.227-1.648l-1.04-1.708Zm-5.203 1.356c-2.36.02-4.434-.578-6.253-1.778l-1.102 1.67c2.173 1.433 4.64 2.13 7.371 2.108l-.016-2Zm-6.258-1.781c-1.822-1.189-3.283-2.904-4.371-5.19l-1.806.86c1.225 2.574 2.916 4.59 5.085 6.005l1.092-1.675Zm-4.371-5.19c-1.08-2.269-1.653-5.022-1.68-8.291l-2 .016c.029 3.489.64 6.544 1.874 9.135l1.806-.86Zm-1.68-8.291-.182-21.908-2 .016.182 21.908 2-.016Zm8.014-9.34.049 5.91 2-.017-.05-5.91-2 .017Zm.049 5.91c.018 2.215.44 4.055 1.423 5.357l1.596-1.206c-.61-.807-1.003-2.142-1.02-4.168l-2 .016Zm1.429 5.364c1.037 1.347 2.546 1.966 4.359 1.951l-.017-2c-1.309.011-2.172-.41-2.758-1.172l-1.584 1.221Zm4.359 1.951c1.246-.01 2.37-.307 3.316-.943l-1.116-1.66c-.56.377-1.282.596-2.217.603l.017 2Zm3.316-.943c.933-.627 1.621-1.507 2.075-2.596l-1.847-.769c-.319.767-.77 1.32-1.344 1.705l1.116 1.66Zm2.072-2.59c.453-1.07.654-2.314.643-3.699l-2 .017c.01 1.19-.165 2.147-.485 2.902l1.842.78Zm.643-3.699-.05-6.09-2 .016.05 6.09 2-.016Zm-1.059-7.082-9.818.081.017 2 9.818-.081-.017-2Zm6.826.943.043 5.182 2-.017-.043-5.181-2 .016Zm.043 5.182c.01 1.21.21 2.319.626 3.306l1.843-.775c-.296-.703-.46-1.546-.469-2.548l-2 .017Zm.626 3.306c.417.993 1.031 1.807 1.86 2.394l1.156-1.632c-.483-.342-.88-.838-1.173-1.537l-1.843.775Zm1.856 2.391c.869.621 1.896.903 3.028.894l-.017-2c-.778.006-1.375-.183-1.848-.521l-1.163 1.627Zm3.028.894c1.711-.015 3.124-.658 4.084-1.987l-1.62-1.172c-.538.744-1.314 1.149-2.48 1.159l.016 2Zm4.079-1.98c.919-1.247 1.336-2.777 1.322-4.52l-2 .017c.011 1.408-.323 2.49-.932 3.317l1.61 1.186Zm1.322-4.52-.045-5.363-2 .016.045 5.364 2-.017Zm-1.053-6.355-8.909.074.017 2 8.908-.074-.016-2Zm-25.87 73.399-.486.873.001.001.486-.874Zm-8.135-8.092-.88.476.002.003.878-.479Zm-.168-22.954-.883-.469-.002.004.885.465Zm8.023-8.203-.497-.868-.004.003.501.865Zm26.159-.217.485-.874-.001-.001-.484.875Zm8.135 8.069-.878.478v.001l.878-.479Zm.19 22.954-.885-.465-.002.003.887.462Zm-8 8.225-.5-.866-.001.001.501.865Zm-6.137-11.04-.361-.932-.01.003.37.929Zm4.336-3.286-.823-.568-.007.01.83.558Zm-.087-10.568-.818.576.001.002.817-.578Zm-4.39-3.213.352-.936-.004-.002-.349.938Zm-14.114.117-.361-.933-.009.004.37.929Zm-4.336 3.286-.824-.568-.006.01.83.558Zm.087 10.568-.817.575v.002l.817-.577Zm4.39 3.213.353-.936-.004-.001-.348.937Zm7.177 13.055c-5.054.042-9.253-.906-12.644-2.788l-.97 1.748c3.762 2.089 8.322 3.084 13.631 3.04l-.017-2Zm-12.643-2.788c-3.405-1.898-5.978-4.462-7.744-7.697l-1.756.958c1.957 3.583 4.808 6.414 8.527 8.486l.973-1.747Zm-7.743-7.694c-1.762-3.253-2.668-6.901-2.701-10.964l-2 .017c.036 4.361 1.012 8.334 2.943 11.899l1.758-.952Zm-2.701-10.964c-.034-4.093.818-7.769 2.54-11.049l-1.771-.93C1.218 110.294.3 114.299.337 118.691l2-.017Zm2.537-11.045c1.728-3.25 4.266-5.851 7.642-7.807l-1.003-1.73c-3.682 2.133-6.492 5.001-8.405 8.599l1.766.938Zm7.637-7.804c3.361-1.925 7.53-2.935 12.555-2.977l-.017-2c-5.279.044-9.805 1.107-13.532 3.241l.994 1.736Zm12.555-2.977c5.055-.041 9.247.9 12.623 2.767l.968-1.75c-3.749-2.074-8.3-3.06-13.608-3.016l.017 2Zm12.621 2.766c3.422 1.899 5.992 4.456 7.742 7.673l1.757-.956c-1.942-3.571-4.795-6.394-8.528-8.466l-.97 1.75Zm7.743 7.674c1.776 3.252 2.69 6.913 2.723 11.006l2-.017c-.036-4.391-1.02-8.381-2.967-11.947l-1.756.958Zm2.723 11.006c.034 4.062-.818 7.723-2.54 11.004l1.77.929c1.889-3.597 2.806-7.587 2.77-11.95l-2 .017Zm-2.542 11.007c-1.697 3.261-4.224 5.866-7.613 7.821l1 1.733c3.7-2.135 6.505-5.013 8.387-8.631l-1.774-.923Zm-7.614 7.822c-3.343 1.937-7.518 2.955-12.572 2.997l.016 2c5.309-.044 9.845-1.114 13.559-3.266l-1.003-1.731Zm-12.664-8.003c2.87-.024 5.347-.425 7.398-1.243l-.74-1.858c-1.755.699-3.969 1.079-6.674 1.101l.016 2Zm7.39-1.239c2.073-.804 3.698-2.015 4.804-3.661l-1.66-1.116c-.839 1.249-2.105 2.229-3.867 2.912l.722 1.865Zm4.798-3.651c1.126-1.634 1.651-3.607 1.633-5.861l-2 .016c.016 1.928-.43 3.478-1.28 4.709l1.647 1.136Zm1.633-5.861c-.02-2.255-.577-4.225-1.728-5.852l-1.633 1.155c.873 1.234 1.345 2.786 1.36 4.713l2-.016Zm-1.727-5.85c-1.132-1.61-2.774-2.791-4.855-3.574l-.705 1.871c1.78.67 3.064 1.631 3.925 2.854l1.636-1.151Zm-4.86-3.576c-2.062-.766-4.542-1.119-7.41-1.095l.016 2c2.708-.022 4.93.313 6.698.97l.697-1.875Zm-7.41-1.095c-2.869.024-5.35.418-7.412 1.217l.723 1.865c1.773-.687 3.998-1.059 6.705-1.082l-.016-2Zm-7.421 1.221c-2.053.818-3.67 2.025-4.79 3.647l1.647 1.136c.857-1.243 2.13-2.227 3.883-2.925l-.74-1.858Zm-4.796 3.657c-1.106 1.646-1.622 3.622-1.604 5.874l2-.017c-.016-1.93.424-3.492 1.264-4.741l-1.66-1.116Zm-1.604 5.874c.02 2.251.568 4.213 1.704 5.827l1.635-1.151c-.857-1.218-1.323-2.763-1.339-4.693l-2 .017Zm1.705 5.829c1.146 1.621 2.787 2.804 4.859 3.574l.696-1.875c-1.758-.653-3.045-1.613-3.922-2.854l-1.633 1.155Zm4.855 3.572c2.078.782 4.567 1.143 7.437 1.119l-.016-2c-2.706.023-4.935-.32-6.717-.991l-.704 1.872Zm31.086 46.317 1-.009-.009-1-1 .009.009 1Zm.105 12.635.008 1 1-.008-.008-1-1 .008Zm-39.043-2.221.541-.841-.001-.001-.54.842Zm-6.035-6.996-.905.427.002.004.903-.431Zm-.175-21.045-.91-.415-.001.003.911.412Zm5.919-7.094-.548-.837-.006.004.554.833Zm39-2.824 1-.008-.008-1-1 .008.008 1Zm.105 12.636.008 1 1-.008-.008-1-1 .008Zm-32.582 1.225-.496-.869-.005.003.501.866Zm-2.614 2.658-.874-.486-.003.005.877.481Zm.064 7.727-.866.501.866-.501Zm2.658 2.614-.486.874.005.003.481-.877Zm31.598.693.105 12.636 2-.017-.105-12.636-2 .017Zm1.096 11.628-29.817.247.017 2 29.817-.248-.017-1.999Zm-29.817.247c-3.38.028-6.258-.755-8.676-2.31l-1.082 1.682c2.792 1.795 6.064 2.659 9.775 2.628l-.017-2Zm-8.677-2.311c-2.42-1.552-4.312-3.735-5.673-6.585l-1.805.862c1.508 3.157 3.64 5.638 6.398 7.407l1.08-1.684Zm-5.671-6.581c-1.346-2.849-2.05-6.195-2.082-10.063l-2 .016c.034 4.101.781 7.743 2.273 10.901l1.809-.854Zm-2.082-10.063c-.033-3.9.616-7.272 1.914-10.142l-1.822-.825c-1.44 3.184-2.127 6.853-2.092 10.983l2-.016Zm1.912-10.139c1.314-2.871 3.17-5.086 5.563-6.678L9.2 148.764c-2.73 1.815-4.82 4.33-6.274 7.512l1.818.831Zm5.558-6.674c2.393-1.568 5.26-2.385 8.643-2.413l-.016-2c-3.708.031-6.963.932-9.723 2.74l1.096 1.673Zm8.643-2.413 29.818-.247-.017-2-29.817.247.016 2Zm28.81-1.239.104 12.636 2-.016-.105-12.636-2 .016Zm1.096 11.628-28.726.238.016 2 28.726-.238-.016-2Zm-28.726.238c-1.593.014-3.049.379-4.344 1.118l.992 1.737c.967-.552 2.081-.844 3.368-.855l-.016-2Zm-4.349 1.121a7.881 7.881 0 0 0-2.987 3.038l1.748.972a5.897 5.897 0 0 1 2.241-2.279l-1.002-1.731Zm-2.99 3.043c-.717 1.307-1.059 2.769-1.046 4.361l2-.017c-.01-1.287.263-2.405.8-3.382l-1.754-.962Zm-1.046 4.361c.014 1.605.378 3.064 1.121 4.348l1.731-1.002c-.548-.948-.84-2.059-.852-3.363l-2 .017Zm1.121 4.348a7.887 7.887 0 0 0 3.038 2.987l.972-1.747a5.89 5.89 0 0 1-2.278-2.242l-1.732 1.002Zm3.043 2.99c1.307.718 2.769 1.059 4.36 1.046l-.016-2c-1.287.011-2.405-.263-3.382-.799l-.962 1.753Zm4.36 1.046 28.727-.238-.017-2-28.726.238.017 2Zm18.681 16.215-.008-1-1 .008.008 1 1-.008Zm10.182-.085 1-.008-.009-1-1 .008.009 1Zm.335 40.453.009 1 1-.008-.008-1-1 .008Zm-10.181.085-1 .008.008 1 1-.008-.008-1Zm-.116-14 1-.008-.008-1-1 .008.008 1Zm-36.363.302-1 .008.009 1 1-.008-.009-1ZM2.7 206.072l-.008-1-1 .008.008 1 1-.008Zm36.363-.302.008 1 1-.008-.008-1-1 .008Zm-.108-12.999 10.181-.085-.016-2-10.182.085.017 2Zm9.173-1.076.335 40.453 2-.017-.335-40.453-2 .017Zm1.327 39.444-10.181.085.016 2 10.182-.085-.017-2Zm-9.173 1.077-.116-14-2 .017.116 13.999 2-.016Zm-1.124-14.992-36.363.302.017 2 36.362-.302-.016-2Zm-35.355 1.294L3.7 206.064l-2 .016.104 12.454 2-.016Zm-1.095-11.446 36.363-.302-.017-2-36.362.302.016 2Zm37.355-1.31-.117-14-2 .017.117 14 2-.017Zm9.774 71.427 1-.008-.008-1-1 .008.008 1Zm.105 12.636.008 1 1-.008-.008-1-1 .008ZM10.9 287.603l.54-.841v-.001l-.54.842Zm-6.036-6.995-.904.427.002.004.902-.431Zm-.175-21.045-.909-.416-.002.004.911.412Zm5.92-7.095-.549-.836-.006.003.554.833Zm39-2.824 1-.008-.009-1-1 .009.009.999Zm.105 12.636.008 1 1-.008-.008-1-1 .008Zm-32.582 1.225-.496-.868-.005.003.5.865Zm-2.615 2.658-.873-.486-.003.005.876.481Zm.064 7.727-.865.501.865-.501Zm2.658 2.615-.486.874.005.002.481-.876Zm31.598.692.105 12.636 2-.016-.105-12.636-2 .016Zm1.097 11.628-29.817.247.016 2 29.817-.247-.016-2Zm-29.817.247c-3.38.028-6.258-.754-8.676-2.31l-1.082 1.682c2.791 1.796 6.063 2.659 9.774 2.628l-.016-2Zm-8.678-2.311c-2.42-1.551-4.312-3.735-5.673-6.584l-1.804.862c1.507 3.157 3.639 5.637 6.398 7.406l1.08-1.684Zm-5.67-6.58c-1.347-2.849-2.05-6.196-2.083-10.064l-2 .017c.034 4.101.782 7.743 2.274 10.901l1.808-.854Zm-2.083-10.064c-.032-3.9.617-7.272 1.915-10.142l-1.823-.824c-1.44 3.183-2.126 6.852-2.092 10.983l2-.017Zm1.913-10.138c1.313-2.872 3.169-5.087 5.563-6.678l-1.108-1.666c-2.73 1.815-4.82 4.33-6.274 7.512l1.819.832Zm5.557-6.674c2.393-1.568 5.26-2.385 8.644-2.413l-.017-2c-3.707.031-6.962.931-9.723 2.74l1.096 1.673Zm8.644-2.413 29.817-.248-.017-1.999-29.817.247.017 2Zm28.809-1.239.105 12.636 2-.017-.105-12.636-2 .017Zm1.096 11.627-28.726.239.017 2 28.726-.239-.017-2Zm-28.726.239c-1.592.013-3.048.379-4.343 1.118l.991 1.737c.968-.552 2.082-.845 3.369-.855l-.017-2Zm-4.348 1.121a7.886 7.886 0 0 0-2.987 3.037l1.747.973a5.884 5.884 0 0 1 2.241-2.279l-1.001-1.731Zm-2.99 3.042c-.718 1.307-1.06 2.769-1.046 4.361l2-.016c-.01-1.287.263-2.406.799-3.382l-1.753-.963Zm-1.046 4.361c.013 1.605.378 3.064 1.12 4.348l1.732-1.001c-.548-.948-.841-2.059-.852-3.363l-2 .016Zm1.12 4.348a7.89 7.89 0 0 0 3.038 2.988l.973-1.748a5.888 5.888 0 0 1-2.279-2.241l-1.731 1.001Zm3.043 2.99c1.307.718 2.77 1.06 4.361 1.046l-.016-2c-1.287.011-2.406-.263-3.382-.799l-.963 1.753Zm4.361 1.046 28.726-.238-.016-2-28.726.238.016 2Zm14.536 42.614-.088-.996-.92.081.008.923 1-.008Zm3.531-1.734-.768-.64-.004.005.772.635Zm.731-7.779-.935.355.004.01.931-.365Zm-1.265-1.808.59-.807-.59.807Zm-1.823-.598-.046.999.016.001h.016l.014-1Zm-1.52.308-.455-.891-.018.009-.017.01.49.872Zm-1.195 1.146-.822-.57-.006.009-.005.008.833.553Zm-1.687 4.855.98.202v-.009l-.98-.193Zm-.787 3.825-.98-.201v.002l.98.199Zm-2.104 6.631-.902-.43.902.43Zm-3.122 4.527-.7-.715-.004.004.704.711Zm-4.024 2.601-.35-.937-.008.003.358.934Zm-4.901.905.003 1 .014-.001-.017-.999Zm-7.792-2.231-.574.818.574-.818Zm-4.895-6.46.928-.373v-.002l-.928.375Zm-.035-20.705-.932-.363v.002l.932.361Zm5.464-7.045-.558-.83-.005.004.563.826Zm9.57-2.58 1-.008-.008-1.004-1.004.012.012 1Zm.1 12 .061.998.947-.058-.008-.949-1 .009Zm-3.582 1.098-.556-.832.556.832Zm-2.182 2.7-.92-.391-.003.004.923.387Zm-.188 7.547-.936.352.936-.352Zm1.404 2.056-.616.788.616-.788Zm2.029.711-.012 1h.02l.021-.001-.03-.999Zm1.857-.72-.633-.774-.012.01-.012.01.657.754Zm1.437-2.194-.921-.389-.005.011.926.378Zm1.193-4.124.978.207.001-.004-.98-.203Zm.961-4.644-.979-.204v.001l.98.203Zm4.396-9.787-.752-.659-.004.005.756.654Zm8.585-3.594.004 1h.009l-.013-1Zm7.769 2.299.578-.816h-.001l-.577.816Zm5.26 6.616.913-.407-.001-.002-.912.409Zm.139 19.545-.912-.409.912.409Zm-5.265 6.385-.552-.835-.006.005.558.83Zm-7.959 2.339-1 .008.009 1.005 1.005-.013-.014-1Zm-.012-11.095c1.738-.153 3.18-.834 4.216-2.095l-1.545-1.27c-.644.784-1.557 1.259-2.847 1.373l.176 1.992Zm4.211-2.089c1.057-1.267 1.485-3.071 1.467-5.228l-2 .017c.016 1.934-.38 3.182-1.003 3.93l1.536 1.281Zm1.467-5.228c-.011-1.373-.188-2.573-.573-3.556l-1.862.729c.265.677.425 1.612.435 2.844l2-.017Zm-.569-3.547c-.357-.94-.877-1.725-1.61-2.26l-1.18 1.615c.335.244.658.664.92 1.355l1.87-.71Zm-1.61-2.26a4.086 4.086 0 0 0-2.4-.791l-.027 2c.482.007.887.143 1.248.406l1.179-1.615Zm-2.367-.79a3.981 3.981 0 0 0-2.02.416l.908 1.782a1.986 1.986 0 0 1 1.02-.2l.092-1.998Zm-2.056.435c-.6.337-1.103.837-1.527 1.448l1.643 1.14c.295-.425.588-.689.864-.845l-.98-1.743Zm-1.538 1.465c-.404.608-.75 1.351-1.05 2.209l1.889.659c.263-.753.542-1.333.827-1.761l-1.666-1.107Zm-1.05 2.209c-.3.861-.561 1.866-.785 3.006l1.962.386c.212-1.075.45-1.984.712-2.733l-1.889-.659Zm-.784 2.998-.786 3.825 1.959.403.786-3.825-1.959-.403Zm-.787 3.827c-.512 2.522-1.191 4.651-2.026 6.4l1.805.861c.922-1.932 1.645-4.224 2.181-6.863l-1.96-.398Zm-2.026 6.4c-.839 1.756-1.816 3.163-2.919 4.242l1.399 1.429c1.302-1.274 2.406-2.885 3.325-4.81l-1.805-.861Zm-2.924 4.246c-1.09 1.082-2.313 1.869-3.67 2.375l.7 1.874c1.634-.61 3.095-1.557 4.378-2.828l-1.408-1.421Zm-3.677 2.378c-1.376.527-2.893.811-4.561.839l.034 1.999c1.876-.031 3.627-.351 5.242-.97l-.715-1.868Zm-4.548.839c-2.89.009-5.277-.691-7.213-2.05l-1.15 1.637c2.332 1.636 5.14 2.423 8.37 2.413l-.007-2Zm-7.213-2.05c-1.951-1.369-3.473-3.355-4.542-6.014l-1.855.746c1.19 2.959 2.931 5.279 5.248 6.905l1.149-1.637Zm-4.542-6.016c-1.07-2.647-1.639-5.883-1.67-9.733l-2 .017c.033 4.028.627 7.526 1.815 10.466l1.855-.75Zm-1.67-9.733c-.033-3.949.523-7.354 1.64-10.236l-1.865-.722c-1.228 3.168-1.81 6.833-1.775 10.975l2-.017Zm1.639-10.234c1.105-2.838 2.805-5.018 5.096-6.583l-1.127-1.651c-2.651 1.81-4.594 4.326-5.833 7.508l1.864.726Zm5.09-6.579c2.283-1.535 5.268-2.363 9.024-2.409l-.024-2c-4.03.049-7.426.941-10.116 2.75l1.117 1.659Zm8.012-3.401.1 12 2-.017-.1-11.999-2 .016Zm1.038 10.993c-1.56.096-2.934.502-4.076 1.265l1.111 1.663c.787-.526 1.801-.852 3.088-.931l-.122-1.997Zm-4.076 1.265c-1.14.762-1.987 1.821-2.547 3.141l1.841.781c.421-.991 1.028-1.732 1.818-2.259l-1.112-1.663Zm-2.549 3.145c-.554 1.324-.807 2.853-.793 4.56l2-.017c-.012-1.505.212-2.753.638-3.77l-1.845-.773Zm-.793 4.56c.012 1.423.197 2.676.592 3.726l1.872-.704c-.286-.763-.453-1.765-.464-3.039l-2 .017Zm.592 3.726c.388 1.03.949 1.887 1.724 2.492l1.231-1.576c-.414-.323-.789-.838-1.083-1.62l-1.872.704Zm1.724 2.492a4.271 4.271 0 0 0 2.633.923l.023-2a2.268 2.268 0 0 1-1.425-.499l-1.23 1.576Zm2.674.922a3.869 3.869 0 0 0 2.485-.965l-1.314-1.508a1.87 1.87 0 0 1-1.23.474l.06 1.999Zm2.462-.946c.724-.593 1.282-1.496 1.729-2.589l-1.852-.756c-.386.944-.785 1.504-1.144 1.798l1.267 1.547Zm1.724-2.577c.466-1.103.88-2.547 1.25-4.307l-1.957-.413c-.358 1.7-.74 3.005-1.135 3.941l1.842.779Zm1.251-4.311.961-4.644-1.958-.406-.962 4.645 1.959.405Zm.961-4.643c.836-4.015 2.245-7.105 4.174-9.337l-1.513-1.308c-2.213 2.561-3.736 5.995-4.619 10.237l1.958.408Zm4.17-9.332c1.868-2.132 4.439-3.239 7.836-3.253l-.009-2c-3.875.016-7.027 1.305-9.332 3.935l1.505 1.318Zm7.845-3.253c2.762-.037 5.14.676 7.179 2.116l1.154-1.633c-2.413-1.705-5.213-2.525-8.36-2.483l.027 2Zm7.178 2.115c2.077 1.472 3.723 3.528 4.925 6.209l1.825-.818c-1.33-2.965-3.19-5.319-5.594-7.023l-1.156 1.632Zm4.924 6.207c1.2 2.692 1.829 5.812 1.858 9.381l2-.017c-.031-3.794-.7-7.194-2.031-10.178l-1.827.814Zm1.858 9.381c.03 3.648-.554 6.754-1.717 9.348l1.824.818c1.307-2.912 1.925-6.316 1.893-10.183l-2 .017Zm-1.717 9.348c-1.166 2.598-2.804 4.571-4.905 5.96l1.103 1.668c2.45-1.619 4.322-3.903 5.626-6.81l-1.824-.818Zm-4.911 5.964c-2.08 1.398-4.539 2.131-7.414 2.169l.027 2c3.215-.043 6.062-.87 8.502-2.509l-1.115-1.66Zm-6.4 3.16-.1-12.09-2 .016.1 12.091 2-.017Z" fill="#05C2DF" fill-opacity=".05" mask="url('#path-1-outside-1_1_398')"/></svg>