<svg width="88" height="80" fill="none" xmlns="http://www.w3.org/2000/svg"><rect x="2.062" y="1.92" width="84.397" height="59.592" rx="3.5" stroke="#05C2DF"/><path stroke="#05C2DF" d="M1.562 51.571h85.396"/><path stroke="#05C2DF" stroke-linecap="round" d="M40.072 56.778h7.852"/><path stroke="#05C2DF" d="M27.056 62.038h33.888v5.154H27.056zM16.642 73.399h54.716v5.154H16.642zM17.97 72.873l8.723-5.154h34.614l8.722 5.154H17.97Z"/><path d="m24.818 13.727 8 22.364h.091l8-22.364h.773L33.364 37h-1l-8.318-23.273h.772ZM46.355 37V13.727h6.818c1.303 0 2.455.277 3.455.83a5.997 5.997 0 0 1 2.364 2.318c.575.992.863 2.155.863 3.489 0 1.318-.288 2.473-.863 3.465a6.02 6.02 0 0 1-2.364 2.307c-1 .546-2.152.819-3.455.819H46.72v-.728h6.454c1.167 0 2.197-.242 3.091-.727a5.301 5.301 0 0 0 2.102-2.046c.508-.878.762-1.909.762-3.09 0-1.19-.254-2.228-.761-3.114a5.28 5.28 0 0 0-2.103-2.057c-.894-.492-1.924-.739-3.09-.739h-6.092V37h-.727Zm8.864-10.59L60.946 37h-.818L54.4 26.41h.818Z" fill="#05C2DF"/></svg>