<svg width="113" height="82" fill="none" xmlns="http://www.w3.org/2000/svg"><g id="Group" stroke="#05C2DF"><circle id="Ellipse" cx="56.654" cy="41.156" r="13.59"/><path id="Ellipse_2" d="M71.097 26.75c4.67 3.089 7.749 8.388 7.749 14.406 0 6.018-3.08 11.316-7.75 14.405"/><path id="Vector 2" d="m71.273 55.422 6.34 8.102"/><path id="Ellipse_3" d="M77.437 63.7c7.429-4.872 12.329-13.23 12.329-22.72 0-9.492-4.9-17.848-12.329-22.72l-6.34 8.63"/><path id="Ellipse_4" d="M84.482 9.807c9.976 6.609 16.556 17.945 16.556 30.821 0 12.876-6.58 24.213-16.556 30.822"/><path id="Ellipse_5" d="M84.482 9.982 90.822 1c12.948 8.535 21.487 23.176 21.487 39.804 0 16.628-8.539 31.268-21.487 39.803l-6.516-9.158"/><path id="Ellipse_6" d="M42.212 26.75c-4.67 3.089-7.75 8.388-7.75 14.406 0 6.018 3.08 11.316 7.75 14.405"/><path id="Vector 2.1" d="m42.036 55.422-6.34 8.102"/><path id="Ellipse_7" d="M35.871 63.7c-7.428-4.872-12.328-13.23-12.328-22.72 0-9.492 4.9-17.848 12.328-22.72l6.34 8.63"/><path id="Ellipse_8" d="M28.827 9.807c-9.976 6.609-16.555 17.945-16.555 30.821 0 12.876 6.58 24.213 16.555 30.822"/><path id="Ellipse_9" d="M28.827 9.982 22.487 1C9.54 9.535 1 24.176 1 40.804c0 16.628 8.54 31.268 21.487 39.803l6.517-9.158"/></g></svg>