<svg width="135" height="2" fill="none" xmlns="http://www.w3.org/2000/svg"><g id="Group 3" fill="#05C2DF"><path id="Vector" opacity=".45" d="M5 0H3v2h2V0Z"/><path id="Vector_2" opacity=".45" d="M2 0H0v2h2V0Z"/><path id="Vector_3" opacity=".45" d="M8 0H6v2h2V0Z"/><path id="Vector_4" opacity=".45" d="M11 0H9v2h2V0Z"/><path id="Vector_5" opacity=".45" d="M14 0h-2v2h2V0Z"/><path id="Vector_6" opacity=".45" d="M18 0h-2v2h2V0Z"/><path id="Vector_7" opacity=".45" d="M22 0h-2v2h2V0Z"/><path id="Vector_8" opacity=".45" d="M26 0h-2v2h2V0Z"/><path id="Vector_9" opacity=".45" d="M31 0h-2v2h2V0Z"/><path id="Vector_10" opacity=".45" d="M36 0h-2v2h2V0Z"/><path id="Vector_11" opacity=".45" d="M41 0h-2v2h2V0Z"/><path id="Vector_12" opacity=".45" d="M46 0h-2v2h2V0Z"/><path id="Vector_13" opacity=".45" d="M51 0h-2v2h2V0Z"/><path id="Vector_14" opacity=".45" d="M56 0h-2v2h2V0Z"/><path id="Vector_15" opacity=".45" d="M67.6.23H66v1.6h1.6V.23Z"/><path id="Vector_16" opacity=".45" d="M73.6.23H72v1.6h1.6V.23Z"/><path id="Vector_17" opacity=".45" d="M79.6.23H78v1.6h1.6V.23Z"/><path id="Vector_18" opacity=".45" d="M85.3.43H84v1.3h1.3V.43Z"/><path id="Vector_19" opacity=".45" d="M92.3.43H91v1.3h1.3V.43Z"/><path id="Vector_20" opacity=".45" d="M99.3.43H98v1.3h1.3V.43Z"/><path id="Vector_21" opacity=".45" d="M106.3.43H105v1.3h1.3V.43Z"/><path id="Vector_22" opacity=".45" d="M114.3.43H113v1.3h1.3V.43Z"/><path id="Vector_23" opacity=".45" d="M123.3.43H122v1.3h1.3V.43Z"/><path id="Vector_24" opacity=".45" d="M61.6.23H60v1.6h1.6V.23Z"/><path id="Vector_25" opacity=".45" d="M135 .5h-1v1h1v-1Z"/></g></svg>