<svg width="78" height="18" fill="none" xmlns="http://www.w3.org/2000/svg"><g id="Group 16"><path id="Vector 2" d="M33 6V1h16.5v5h-6v6.5l-5 4.5V6H33Z" fill="#fff"/><g id="Vector" fill="#fff"><path d="M5 1H0v16L16.5 1H10L5 6V1ZM9.5 10l-3 3 4 4h6l-7-7Z"/></g><path id="Vector 2_2" d="M18 17V1h7l9.5 10v6L24 6h-1.5v3H25l3.5 3.5h-6L18 17Z" fill="#fff"/><path id="Vector_2" d="m53 1 6 15 5.5-15" stroke="#05C2DF"/><path id="Vector 2_3" d="M67 17V9.5m4.5 0c7.5 0 6-8 1-8H67v8m4.5 0H67m4.5 0 6 7.5" stroke="#05C2DF"/></g></svg>