<svg width="98" height="81" fill="none" xmlns="http://www.w3.org/2000/svg"><g id="Ресурс 1" clip-path="url('#clip0_1_10240')"><g id="Слой 2"><g id="Слой 2_2" stroke="#05C2DF" stroke-miterlimit="10"><path id="Vector" d="M62.238 5.253 49.2.107.276 19.026 49 41.5l48.725-22.482L64.888 6.432"/><path id="Vector_2" d="m47.955 15.935 26.542 12.163v43.83"/><path id="Vector_3" d="M16 26v14"/><path id="Vector_4" d="M16.08 43.15v13.645s31.502 27.182 65.66 0V26.31"/><path id="Vector_5" d="M74.497 80.9c2.45 0 4.438-1.996 4.438-4.459 0-2.462-1.987-4.459-4.438-4.459-2.451 0-4.438 1.997-4.438 4.46 0 2.462 1.987 4.458 4.438 4.458Z"/></g></g></g><defs><clipPath id="clip0_1_10240"><path fill="#fff" d="M0 0h98v81H0z"/></clipPath></defs></svg>