<svg width="84" height="84" fill="none" xmlns="http://www.w3.org/2000/svg"><g id="skyline" clip-path="url('#clip0_1_10253')"><g id="Group"><g id="Group_2"><g id="Group_3" stroke-linecap="round"><path id="Vector" d="M76.225 7.079v73.59H24.37v-1.86a1.916 1.916 0 1 0-3.831 0v1.86H8.326V27.842c0-.506.41-.916.915-.916H21.54V14.629c0-.506.41-.916.915-.916h4.748V7.08c0-.506.41-.916.915-.916h6.635V1.416a.916.916 0 1 1 1.831 0v4.747h6.635c.506 0 .916.41.916.916v6.634h3.832V7.08c0-.506.41-.916.915-.916H75.31c.506 0 .916.41.916.916Z" stroke="#05C2DF"/><path id="Vector_2" d="M43 77.5V51.073" stroke="#05C2DF"/><path id="Vector_3" d="M49 77.427V51" stroke="#05C2DF"/><path id="Vector_4" d="M55 77.427V51" stroke="#05C2DF"/><path id="Vector_5" d="M57.323 16.517a1.166 1.166 0 1 1-2.331 0V14.63a1.166 1.166 0 1 1 2.33 0v1.887Z" fill="#05C2DF" stroke="#05040B" stroke-width=".5"/><path id="Vector_6" d="M62.986 16.517a1.166 1.166 0 1 1-2.331 0V14.63a1.166 1.166 0 1 1 2.331 0v1.887Z" fill="#05C2DF" stroke="#05040B" stroke-width=".5"/><path id="Vector_7" d="M68.65 16.517a1.166 1.166 0 1 1-2.332 0V14.63a1.166 1.166 0 1 1 2.331 0v1.887Z" fill="#05C2DF" stroke="#05040B" stroke-width=".5"/><path id="Vector_8" d="M57.323 25.955a1.166 1.166 0 1 1-2.331 0v-1.888a1.166 1.166 0 1 1 2.33 0v1.888Z" fill="#05C2DF" stroke="#05040B" stroke-width=".5"/><path id="Vector_9" d="M62.986 25.955a1.166 1.166 0 1 1-2.331 0v-1.888a1.166 1.166 0 1 1 2.331 0v1.888Z" fill="#05C2DF" stroke="#05040B" stroke-width=".5"/><path id="Vector_10" d="M68.65 25.955a1.166 1.166 0 1 1-2.332 0v-1.888a1.166 1.166 0 1 1 2.331 0v1.888Z" fill="#05C2DF" stroke="#05040B" stroke-width=".5"/><path id="Vector_11" d="M57.323 35.393a1.166 1.166 0 1 1-2.331 0v-1.888a1.166 1.166 0 1 1 2.33 0v1.888Z" fill="#05C2DF" stroke="#05040B" stroke-width=".5"/><path id="Vector_12" d="M62.986 35.393a1.166 1.166 0 1 1-2.331 0v-1.888a1.166 1.166 0 1 1 2.331 0v1.888Z" fill="#05C2DF" stroke="#05040B" stroke-width=".5"/><path id="Vector_13" d="M68.65 35.393a1.166 1.166 0 1 1-2.332 0v-1.888a1.166 1.166 0 1 1 2.331 0v1.888Z" fill="#05C2DF" stroke="#05040B" stroke-width=".5"/><path id="Vector_14" d="M17.683 39.169a1.166 1.166 0 1 1-2.332 0V37.28a1.166 1.166 0 1 1 2.332 0v1.888Z" fill="#05C2DF" stroke="#05040B" stroke-width=".5"/><path id="Vector_15" d="M23.346 39.169a1.166 1.166 0 1 1-2.332 0V37.28a1.166 1.166 0 1 1 2.332 0v1.888Z" fill="#05C2DF" stroke="#05040B" stroke-width=".5"/><path id="Vector_16" d="M29.008 39.169a1.166 1.166 0 1 1-2.331 0V37.28a1.166 1.166 0 1 1 2.331 0v1.888Z" fill="#05C2DF" stroke="#05040B" stroke-width=".5"/><path id="Vector_17" d="M17.683 48.607a1.166 1.166 0 1 1-2.332 0V46.72a1.166 1.166 0 1 1 2.332 0v1.888Z" fill="#05C2DF" stroke="#05040B" stroke-width=".5"/><path id="Vector_18" d="M23.346 48.607a1.166 1.166 0 1 1-2.332 0V46.72a1.166 1.166 0 1 1 2.332 0v1.888Z" fill="#05C2DF" stroke="#05040B" stroke-width=".5"/><path id="Vector_19" d="M29.008 48.607a1.166 1.166 0 1 1-2.331 0V46.72a1.166 1.166 0 1 1 2.331 0v1.888Z" fill="#05C2DF" stroke="#05040B" stroke-width=".5"/><path id="Vector_20" d="M17.683 58.045a1.166 1.166 0 1 1-2.332 0v-1.888a1.166 1.166 0 1 1 2.332 0v1.888Z" fill="#05C2DF" stroke="#05040B" stroke-width=".5"/><path id="Vector_21" d="M23.346 58.045a1.166 1.166 0 1 1-2.332 0v-1.888a1.166 1.166 0 1 1 2.332 0v1.888Z" fill="#05C2DF" stroke="#05040B" stroke-width=".5"/><path id="Vector_22" d="M29.008 58.045a1.166 1.166 0 1 1-2.331 0v-1.888a1.166 1.166 0 1 1 2.331 0v1.888Z" fill="#05C2DF" stroke="#05040B" stroke-width=".5"/><path id="Vector_23" d="M17.683 67.483a1.166 1.166 0 1 1-2.332 0v-1.888a1.166 1.166 0 1 1 2.332 0v1.888Z" fill="#05C2DF" stroke="#05040B" stroke-width=".5"/><path id="Vector_24" d="M23.346 67.483a1.166 1.166 0 1 1-2.332 0v-1.888a1.166 1.166 0 1 1 2.332 0v1.888Z" fill="#05C2DF" stroke="#05040B" stroke-width=".5"/><path id="Vector_25" d="M29.008 67.483a1.166 1.166 0 1 1-2.331 0v-1.888a1.166 1.166 0 1 1 2.331 0v1.888Z" fill="#05C2DF" stroke="#05040B" stroke-width=".5"/><path id="Vector_26" d="M68.65 44.832a1.166 1.166 0 1 1-2.332 0v-1.888a1.166 1.166 0 1 1 2.331 0v1.888Z" fill="#05C2DF" stroke="#05040B" stroke-width=".5"/><path id="Vector_27" d="M68.65 54.27a1.166 1.166 0 1 1-2.332 0v-1.888a1.166 1.166 0 1 1 2.331 0v1.888Z" fill="#05C2DF" stroke="#05040B" stroke-width=".5"/><path id="Vector_28" d="M68.65 63.708a1.166 1.166 0 1 1-2.332 0V61.82a1.166 1.166 0 1 1 2.331 0v1.888Z" fill="#05C2DF" stroke="#05040B" stroke-width=".5"/><path id="Vector_29" d="M68.65 73.146a1.166 1.166 0 1 1-2.332 0v-1.888a1.166 1.166 0 1 1 2.331 0v1.888Z" fill="#05C2DF" stroke="#05040B" stroke-width=".5"/><path id="Vector_30" d="M41.326 20H30" stroke="#05C2DF"/></g></g></g><path id="Subtract" fill-rule="evenodd" clip-rule="evenodd" d="M56 42a1 1 0 0 0-1 1v1h2v-1a1 1 0 0 0-1-1Z" fill="#05C2DF"/><path id="Subtract_2" fill-rule="evenodd" clip-rule="evenodd" d="M62 42a1 1 0 0 0-1 1v1h2v-1a1 1 0 0 0-1-1Z" fill="#05C2DF"/></g><defs><clipPath id="clip0_1_10253"><path fill="#fff" d="M0 0h84v84H0z"/></clipPath></defs></svg>