<svg width="115" height="85" fill="none" xmlns="http://www.w3.org/2000/svg"><g id="Group" stroke="#05C2DF" stroke-width="1.007"><path id="Vector" d="M50.405 18.644a22.581 22.581 0 0 1 4.32 13.336c0 12.542-10.204 22.745-22.745 22.745-12.542 0-22.745-10.203-22.745-22.745 0-12.541 10.203-22.745 22.745-22.745a22.58 22.58 0 0 1 13.317 4.307" stroke-linejoin="round"/><path id="Vector_2" d="M31.98 41.091c-5.022 0-9.11-4.087-9.11-9.11s4.088-9.11 9.11-9.11c5.024 0 9.111 4.087 9.111 9.11s-4.087 9.11-9.11 9.11Z"/><path id="Vector_3" d="M112.762 1c-9.504 0-17.237 7.732-17.237 17.236v8.982a14.766 14.766 0 0 0-6.108 3.59"/><path id="Vector_4" d="M49.48 57.532a31.189 31.189 0 0 0 10.452-12.198M94.296 54a23.652 23.652 0 0 0-5.672-3.837l-.345-.167m-2.761-12.682a14.805 14.805 0 0 0-.585 4.11v6.958l-1.767-.853a56.265 56.265 0 0 0-21.88-5.497 30.85 30.85 0 0 0 1.675-10.05C62.96 14.899 49.063 1 31.98 1 14.898 1.001 1 14.899 1 31.981c0 17.083 13.898 30.98 30.98 30.98 5.23 0 10.16-1.304 14.486-3.601 1.61 1.396 28.217 24.27 42.133 24.27.17 0 .34-.003.506-.01 13.926-.581 24.454-12 24.895-12.486"/></g></svg>