<svg width="83" height="83" fill="none" xmlns="http://www.w3.org/2000/svg"><g id="network" clip-path="url('#clip0_1_10295')"><g id="Group"><g id="Group_2"><path id="Vector" d="M72.434 22.133a5.039 5.039 0 0 1 5.033-5.033 5.039 5.039 0 0 1 5.033 5.033 5.039 5.039 0 0 1-5.033 5.033 5.039 5.039 0 0 1-5.033-5.033Z" stroke="#05C2DF"/></g></g><g id="Group_3"><g id="Group_4"><path id="Vector_2" d="M.5 67.783a5.039 5.039 0 0 1 5.033-5.033 5.039 5.039 0 0 1 5.034 5.033 5.039 5.039 0 0 1-5.034 5.034A5.039 5.039 0 0 1 .5 67.783Z" stroke="#05C2DF"/></g></g><g id="Group_5"><g id="Group_6"><path id="Vector_3" d="M73.978 18.044 63.152 12.63" stroke="#05C2DF"/></g></g><g id="Group_7"><g id="Group_8"><path id="Vector_4" d="M57.217 77.467a5.039 5.039 0 0 1 5.033-5.033 5.039 5.039 0 0 1 5.033 5.033A5.039 5.039 0 0 1 62.25 82.5a5.039 5.039 0 0 1-5.033-5.033Z" stroke="#05C2DF"/></g></g><g id="Group_9"><g id="Group_10"><path id="Vector_5" d="m58.486 73.605-10.13-5.4" stroke="#05C2DF"/></g></g><g id="Group_11"><g id="Group_12"><path id="Vector_6" d="M36.467 42.883A5.039 5.039 0 0 1 41.5 37.85a5.039 5.039 0 0 1 5.033 5.033 5.039 5.039 0 0 1-5.033 5.033 5.039 5.039 0 0 1-5.033-5.033Z" stroke="#05C2DF"/></g></g><g id="Group_13"><g id="Group_14"><path id="Vector_7" d="m38.252 38.613-7.939-6.135" stroke="#05C2DF"/></g></g><g id="Group_15"><g id="Group_16"><path id="Vector_8" d="M51.683 51.184c0-8.114 6.603-14.717 14.717-14.717s14.717 6.603 14.717 14.717c0 8.113-6.603 14.716-14.717 14.716s-14.717-6.603-14.717-14.717Z" stroke="#05C2DF"/></g></g><g id="Group_17"><g id="Group_18"><path id="Vector_9" d="M61.367 47.033A5.039 5.039 0 0 1 66.4 42a5.039 5.039 0 0 1 5.033 5.033 5.039 5.039 0 0 1-5.033 5.034 5.039 5.039 0 0 1-5.033-5.034Z" stroke="#05C2DF"/></g></g><g id="Group_19"><g id="Group_20"><path id="Vector_10" d="M73.76 63.916v-.001a.882.882 0 0 0 .44-.763v-3.647c0-2.012-1.686-3.672-3.787-3.672h-8.026c-2.101 0-3.787 1.66-3.787 3.67v3.647c0 .316.168.607.44.766h14.72Zm0 0A14.715 14.715 0 0 1 66.4 65.9c-2.572 0-5.116-.686-7.36-1.984h14.72Z" stroke="#05C2DF"/></g></g><g id="Group_21"><g id="Group_22"><path id="Vector_11" d="M18.484 67.783c0-8.114 6.602-14.717 14.716-14.717 8.114 0 14.717 6.603 14.717 14.717S41.314 82.5 33.2 82.5s-14.716-6.603-14.716-14.717Z" stroke="#05C2DF"/></g></g><g id="Group_23"><g id="Group_24"><path id="Vector_12" d="M28.167 63.633A5.039 5.039 0 0 1 33.2 58.6a5.039 5.039 0 0 1 5.033 5.033 5.039 5.039 0 0 1-5.033 5.033 5.039 5.039 0 0 1-5.033-5.033Z" stroke="#05C2DF"/></g></g><g id="Group_25"><g id="Group_26"><path id="Vector_13" d="M40.56 80.516A14.715 14.715 0 0 1 33.2 82.5c-2.571 0-5.116-.686-7.359-1.984a.884.884 0 0 1-.44-.765v-3.647c0-2.01 1.685-3.67 3.786-3.67h8.026c2.101 0 3.787 1.66 3.787 3.672v3.646a.882.882 0 0 1-.44.764Z" stroke="#05C2DF"/></g></g><g id="Group_27"><g id="Group_28"><path id="Vector_14" d="M.5 33.2c0-8.114 6.603-14.717 14.717-14.717 8.113 0 14.716 6.603 14.716 14.717s-6.602 14.717-14.716 14.717C7.103 47.917.5 41.314.5 33.2Z" stroke="#05C2DF"/></g></g><g id="Group_29"><g id="Group_30"><path id="Vector_15" d="M10.184 29.05a5.039 5.039 0 0 1 5.033-5.033 5.039 5.039 0 0 1 5.033 5.033 5.039 5.039 0 0 1-5.033 5.033 5.039 5.039 0 0 1-5.033-5.033Z" stroke="#05C2DF"/></g></g><g id="Group_31"><g id="Group_32"><path id="Vector_16" d="M22.577 45.932h-.001a14.715 14.715 0 0 1-7.36 1.984c-2.57 0-5.115-.686-7.358-1.984a.884.884 0 0 1-.441-.765V41.52c0-2.01 1.686-3.67 3.787-3.67h8.026c2.1 0 3.787 1.66 3.787 3.672v3.646a.882.882 0 0 1-.44.764Z" stroke="#05C2DF"/></g></g><g id="Group_33"><g id="Group_34"><path id="Vector_17" d="M33.7 15.217C33.7 7.103 40.303.5 48.417.5s14.716 6.603 14.717 14.717c0 8.114-6.603 14.716-14.717 14.716S33.7 23.331 33.7 15.217Z" stroke="#05C2DF"/></g></g><g id="Group_35"><g id="Group_36"><path id="Vector_18" d="M43.383 11.066a5.039 5.039 0 0 1 5.033-5.033 5.04 5.04 0 0 1 5.034 5.034 5.039 5.039 0 0 1-5.034 5.033 5.039 5.039 0 0 1-5.033-5.034Z" stroke="#05C2DF"/></g></g><g id="Group_37"><g id="Group_38"><path id="Vector_19" d="M55.777 27.95h-.001a14.715 14.715 0 0 1-7.36 1.984c-2.57 0-5.115-.686-7.358-1.984a.884.884 0 0 1-.441-.766v-3.646c0-2.01 1.686-3.67 3.787-3.67h8.026c2.1 0 3.787 1.66 3.787 3.671v3.647a.882.882 0 0 1-.44.763Z" stroke="#05C2DF"/></g></g><g id="Group_39"><g id="Group_40"><path id="Vector_20" d="m33.404 14.435-8.865 7.217" stroke="#05C2DF"/></g></g><g id="Group_41"><g id="Group_42"><path id="Vector_21" d="m65.678 36.087-7.217-9.743" stroke="#05C2DF"/></g></g><g id="Group_43"><g id="Group_44"><path id="Vector_22" d="m52.114 56.296-5.562 4.33" stroke="#05C2DF"/></g></g><g id="Group_45"><g id="Group_46"><path id="Vector_23" d="M18.344 67.482h-7.518" stroke="#05C2DF"/></g></g><g id="Group_47"><g id="Group_48"><path id="Vector_24" d="M20.25 5.533a5.039 5.039 0 0 1-5.034 5.034 5.039 5.039 0 0 1-5.033-5.034A5.039 5.039 0 0 1 15.217.5a5.039 5.039 0 0 1 5.033 5.033Z" stroke="#05C2DF"/></g></g><g id="Group_49"><g id="Group_50"><path id="Vector_25" d="M14.074 10.826v7.218" stroke="#05C2DF"/></g></g></g><defs><clipPath id="clip0_1_10295"><path fill="#fff" d="M0 0h83v83H0z"/></clipPath></defs></svg>