<svg width="14" height="14" fill="none" xmlns="http://www.w3.org/2000/svg"><path id="Vector" d="M.882 8.546c-.036.21-.062.423-.062.642C.82 11.84 3.635 14 7.027 14c3.393 0 6.153-2.159 6.153-4.813 0-.218-.025-.43-.062-.641C13.65 8.25 14 7.666 14 7c0-.965-.736-1.75-1.64-1.75-.414 0-.803.165-1.1.454-1.031-.767-2.4-1.255-3.912-1.316l.785-3.248 1.77.66c.026.942.748 1.7 1.636 1.7.905 0 1.64-.785 1.64-1.75S12.445 0 11.54 0c-.63 0-1.173.386-1.448.944L7.562 0 6.499 4.396c-1.43.096-2.775.576-3.759 1.308a1.577 1.577 0 0 0-1.1-.454C.737 5.25 0 6.035 0 7c0 .666.35 1.25.882 1.546ZM9.488 7c.679 0 1.23.589 1.23 1.313 0 .723-.551 1.312-1.23 1.312-.678 0-1.23-.589-1.23-1.313C8.258 7.59 8.81 7 9.488 7Zm-.175 3.865.35.79c-.77.39-1.68.595-2.636.595-.955 0-1.92-.206-2.69-.595l.35-.79c1.322.667 3.304.667 4.626 0ZM4.512 7c.678 0 1.23.589 1.23 1.313 0 .723-.552 1.312-1.23 1.312-.679 0-1.23-.589-1.23-1.313C3.281 7.59 3.832 7 4.511 7Z" fill="#fff"/></svg>