<svg width="15" height="11" fill="none" xmlns="http://www.w3.org/2000/svg"><path id="Vector" d="M5.596 11a14.34 14.34 0 0 1-1.988-.141c-1.183-.167-2.38-.721-2.72-.887L0 9.536l.962-.283c1.052-.31 1.692-.502 2.484-.803-.793-.344-1.404-.963-1.699-1.764l-.223-.609.183.026a3.08 3.08 0 0 1-.418-.462C.91 5.125.71 4.495.752 3.955l.042-.531.355.123a2.78 2.78 0 0 1-.321-.808c-.155-.692-.026-1.427.365-2.07l.31-.509.413.445C3.225 2.014 4.882 2.85 6.85 3.094a2.39 2.39 0 0 1 .179-1.405c.232-.5.645-.923 1.193-1.225A3.916 3.916 0 0 1 10.3.006c.776.043 1.482.304 2.042.755.273-.064.475-.132.747-.224.164-.055.35-.118.582-.19l.857-.264-.559 1.43a3.14 3.14 0 0 1 .115-.007L15 1.47l-.54.662a1.217 1.217 0 0 0-.05.064c-.044.059-.099.132-.841 1.02a1.162 1.162 0 0 0-.261.816c.066 1.154-.093 2.198-.47 3.104a5.506 5.506 0 0 1-1.646 2.184c-.909.733-2.068 1.235-3.445 1.492-.675.126-1.4.189-2.151.189Z" fill="#fff"/></svg>