<svg width="54" height="34" fill="none" xmlns="http://www.w3.org/2000/svg"><g id="Layer 1.1"><path id="Vector" d="M52.129 0H1.797C.805 0 0 .805 0 1.797v30.108c0 .992.805 1.797 1.797 1.797H52.13c.992 0 1.797-.805 1.797-1.797V1.797C53.926.805 53.12 0 52.129 0Z" fill="#F9F9F9"/><path id="Vector_2" d="M24.815 21.913H22.18l1.646-10.116h2.636l-1.647 10.116Z" fill="#0066B2"/><path id="Vector_3" d="m19.966 11.797-2.511 6.956-.297-1.496-.89-4.548a1.123 1.123 0 0 0-1.246-.912h-4.153l-.048.172a9.806 9.806 0 0 1 2.756 1.157l2.287 8.8h2.748l4.174-10.129h-2.82Z" fill="#0066B2"/><path id="Vector_4" d="M40.684 21.926h2.42L40.999 11.81h-2.12a1.212 1.212 0 0 0-1.216.753l-3.93 9.363h2.748l.55-1.5h3.35l.304 1.5Zm-2.897-3.577 1.384-3.787.778 3.787h-2.162Z" fill="#0066B2"/><path id="Vector_5" d="m33.939 14.23.378-2.192a7.649 7.649 0 0 0-2.369-.43c-1.31 0-4.432.58-4.432 3.358 0 2.614 3.646 2.644 3.646 4.02 0 1.376-3.268 1.126-4.347.258l-.391 2.274c.94.395 1.951.59 2.97.572 1.798 0 4.51-.933 4.51-3.465 0-2.631-3.675-2.876-3.675-4.02 0-1.144 2.584-.997 3.71-.374Z" fill="#0066B2"/><path id="Vector_6" d="m17.158 17.257-.89-4.548a1.123 1.123 0 0 0-1.246-.912h-4.153l-.048.172a10.201 10.201 0 0 1 3.908 1.96 7.905 7.905 0 0 1 2.43 3.328Z" fill="#F9A533"/></g></svg>